<?xml version="1.0" encoding="UTF-8" standalone="no"?>
<!-- Created with Inkscape (http://www.inkscape.org/) -->

<svg
   version="1.1"
   id="svg1"
   width="3000"
   height="3000"
   viewBox="0 0 2999.9999 3000"
   xmlns="http://www.w3.org/2000/svg"
   xmlns:svg="http://www.w3.org/2000/svg">
  <defs
     id="defs1" />
  <g
     id="g1">
    <path
       style="fill:#000000;stroke-width:10.0484"
       d="m 244.95397,2404.6489 c 0,-14.2578 6.14438,-42.0844 13.65418,-61.8366 14.87962,-39.1365 3.04154,-170.4187 -14.39537,-159.6421 -5.91504,3.6558 -38.31325,-0.7244 -71.996,-9.7328 -72.972873,-19.5173 -76.209681,-35.7658 -26.61952,-133.6272 67.93437,-134.062 199.26367,-241.3326 269.96903,-220.5122 19.21406,5.6578 40.45248,-27.4974 113.09516,-176.5521 49.1912,-100.9349 123.04066,-234.7648 164.1099,-297.3998 41.14094,-62.7443 86.69856,-152.9869 101.45562,-200.9678 34.1597,-111.0664 33.5986,-110.3411 118.47898,-153.15641 39.35112,-19.84952 96.62695,-58.84202 127.27965,-86.65004 65.8237,-59.71508 211.0864,-154.3622 362.4301,-236.14426 157.8087,-85.27557 400.2485,-162.26111 573.6848,-182.17072 264.2156,-30.33061 618.181,23.20039 790.5652,119.55897 52.6734,29.44316 67.3036,45.90025 78.9266,88.78163 17.3846,64.13914 5.1132,157.47084 -25.6346,194.96902 -15.3674,18.74086 -70.846,40.27858 -171.5566,66.60084 -81.8644,21.39656 -170.351,47.88877 -196.6364,58.87157 -47.7918,19.9686 -47.7918,19.9686 -28.677,83.4823 25.228,83.8265 24.2926,226.8555 -1.9882,303.9855 -44.8844,131.7285 -184.4044,237.9911 -259.622,197.7358 -25.3964,-13.5916 -28.57,-22.7569 -20.2462,-58.4697 18.4972,-79.3606 13.0308,-214.2769 -10.8646,-268.1481 -22.8988,-51.6247 -22.8988,-51.6247 -66.5478,-24.0172 -40.3892,25.5459 -44.79,35.5576 -58.9274,134.0587 -27.5252,191.7801 -88.9933,327.4371 -202.0935,446.0109 -82.1408,86.1161 -145.5604,116.236 -192.1936,91.2786 -30.992,-16.5863 -30.9865,-30.6891 0.07,-173.6739 7.2018,-33.1596 13.3567,-101.6314 13.6776,-152.1593 0.5235,-82.3759 -1.8393,-90.8662 -22.8627,-82.165 -200.0744,82.8066 -413.388,147.8551 -616.01805,187.8504 -255.94438,50.5186 -326.65646,79.3813 -414.25126,169.0858 -51.6076,52.8506 -51.6076,52.8506 -51.9515,183.4372 -0.3099,117.6566 -4.28962,138.4863 -40.19356,210.3696 -25.90216,51.8587 -60.14372,95.0238 -97.8321,123.3276 -67.47328,50.672 -136.28649,59.5692 -136.28649,17.6208 z m 100.48392,-53.1842 c 7.36882,-0.7034 13.41344,-8.8156 13.43248,-18.0267 0.02,-9.211 10.14434,-16.8242 22.50064,-16.9182 12.3563,-0.09 27.4133,-5.5823 33.46,-12.1964 6.38708,-6.9863 3.24786,-7.5368 -7.49144,-1.3136 -10.167,5.8915 -15.8883,5.3509 -12.714,-1.2015 66.73814,-137.7596 68.4201,-144.5573 67.0549,-270.9982 -0.7496,-69.4221 -4.80286,-129.662 -9.00734,-133.8665 -4.20448,-4.2044 -28.5956,-7.6445 -54.20246,-7.6445 -36.6937,0 -58.77092,11.9861 -104.20146,56.5728 -31.70394,31.1151 -61.19496,53.0214 -65.53563,48.6807 -4.34067,-4.3406 -12.4419,-0.5306 -18.00274,8.4672 -6.46084,10.4538 -4.52693,12.9084 5.35733,6.7996 22.7424,-14.0556 18.93956,3.3385 -11.49664,52.5853 -26.9646,43.6296 -26.9646,43.6296 8.63685,52.565 19.72346,4.9502 41.90755,2.6293 49.74093,-5.2042 17.62158,-17.6215 58.1433,-18.4225 68.68992,-1.3577 4.34474,7.03 3.90318,28.7044 -0.98122,48.1656 -6.54512,26.0777 -11.88448,30.6444 -20.30154,17.3635 -7.55282,-11.9174 -11.42074,-2.1392 -11.42074,28.872 0,35.1633 3.24858,41.8657 12.98754,26.7958 9.28762,-14.3716 13.04598,0.1668 13.1927,51.0326 0.127,44.0542 -4.8947,67.9776 -13.1927,62.8491 -7.36882,-4.5541 -13.39786,-2.9002 -13.39786,3.6753 0,19.1874 17.57344,31.3434 25.88058,17.9022 4.18774,-6.7758 13.6431,-12.8954 21.01192,-13.5992 z m -6.69894,-7.9783 c 0,-3.6844 3.01452,-6.6989 6.69894,-6.6989 3.6844,0 6.69892,3.0145 6.69892,6.6989 0,3.6845 -3.01452,6.6989 -6.69892,6.6989 -3.68442,0 -6.69894,-3.0144 -6.69894,-6.6989 z m 107.18286,-80.3871 c 0,-3.6845 -3.01452,-6.699 -6.69892,-6.699 -3.68442,0 -6.69894,3.0145 -6.69894,6.699 0,3.6844 3.01452,6.6989 6.69894,6.6989 3.6844,0 6.69892,-3.0145 6.69892,-6.6989 z m 13.39786,-26.7958 c 0,-3.6843 -3.01452,-6.6988 -6.69894,-6.6988 -3.6844,0 -6.69892,3.0145 -6.69892,6.6988 0,3.6845 3.01452,6.699 6.69892,6.699 3.68442,0 6.69894,-3.0145 6.69894,-6.699 z m 13.39786,-40.1935 c 0,-3.6844 -3.01452,-6.6989 -6.69894,-6.6989 -3.6844,0 -6.69892,3.0145 -6.69892,6.6989 0,3.6844 3.01452,6.6989 6.69892,6.6989 3.68442,0 6.69894,-3.0145 6.69894,-6.6989 z m -227.76356,-53.5914 c 0,-3.6845 -3.01452,-6.699 -6.69893,-6.699 -3.68442,0 -6.69894,3.0145 -6.69894,6.699 0,3.6844 3.01452,6.6989 6.69894,6.6989 3.68441,0 6.69893,-3.0145 6.69893,-6.6989 z m -40.19357,-13.3978 c 0,-3.6845 -3.01452,-6.699 -6.69893,-6.699 -3.68442,0 -6.69893,3.0145 -6.69893,6.699 0,3.6843 3.01451,6.6988 6.69893,6.6988 3.68441,0 6.69893,-3.0145 6.69893,-6.6988 z m 276.88903,-15.6309 c -4.91254,-4.9126 -8.9319,-0.8933 -8.9319,8.9319 0,9.8251 4.01936,13.8445 8.9319,8.9319 4.91254,-4.9126 4.91254,-12.9513 0,-17.8638 z m -303.68475,-37.9606 c 0,-3.6844 -3.01452,-6.6989 -6.69893,-6.6989 -3.68441,0 -6.69893,3.0145 -6.69893,6.6989 0,3.6844 3.01452,6.6989 6.69893,6.6989 3.68441,0 6.69893,-3.0145 6.69893,-6.6989 z m 26.79572,-40.1936 c 0,-3.6844 -3.01452,-6.6989 -6.69893,-6.6989 -3.68442,0 -6.69893,3.0145 -6.69893,6.6989 0,3.6844 3.01451,6.699 6.69893,6.699 3.68441,0 6.69893,-3.0146 6.69893,-6.699 z m 276.88903,-42.4265 c -4.91254,-4.9126 -8.9319,-0.8933 -8.9319,8.9319 0,9.8251 4.01936,13.8445 8.9319,8.9319 4.91254,-4.9126 4.91254,-12.9513 0,-17.8638 z m -196.5019,-64.7563 c 17.30662,-18.4221 28.45206,-33.4947 24.76766,-33.4947 -3.68442,0 -20.8589,15.0726 -38.16552,33.4947 -17.30662,18.422 -28.45206,33.4946 -24.76765,33.4946 3.68441,0 20.85889,-15.0726 38.16551,-33.4946 z m 200.96784,-13.3979 c 0,-3.6844 -3.01452,-6.6989 -6.69892,-6.6989 -3.6844,0 -6.69892,3.0145 -6.69892,6.6989 0,3.6844 3.01452,6.6989 6.69892,6.6989 3.6844,0 6.69892,-3.0145 6.69892,-6.6989 z m 25.90292,-39.1178 c 14.87596,-17.9244 7.37084,-19.7219 -36.742,-8.7998 -5.1303,1.2702 10.79596,27.8208 16.68822,27.8208 2.34726,0 11.37146,-8.5594 20.05378,-19.021 z m -25.90292,-1.0758 c 0,-3.6843 3.01452,-6.6988 6.69894,-6.6988 3.68442,0 6.69892,3.0145 6.69892,6.6988 0,3.6845 -3.0145,6.699 -6.69892,6.699 -3.68442,0 -6.69894,-3.0145 -6.69894,-6.699 z m 1174.54543,11.1649 c -4.9126,-4.9125 -12.9513,-4.9125 -17.8638,0 -4.9126,4.9125 -0.8933,8.9319 8.9319,8.9319 9.8251,0 13.8444,-4.0194 8.9319,-8.9319 z M 352.13681,1874.5614 c 0,-3.6843 -3.01452,-6.6988 -6.69892,-6.6988 -3.68442,0 -6.69894,3.0145 -6.69894,6.6988 0,3.6845 3.01452,6.699 6.69894,6.699 3.6844,0 6.69892,-3.0145 6.69892,-6.699 z M 1688.573,1864.513 c -1.8423,-9.2109 6.7115,-15.9915 19.0085,-15.0678 12.2968,0.9234 45.4565,-22.571 73.6881,-52.2105 28.2317,-29.6394 43.794,-49.6337 34.583,-44.4318 -24.9314,14.0801 -20.2549,-12.7928 5.9213,-34.0257 19.3064,-15.6605 20.9866,-15.5968 11.3277,0.429 -7.7558,12.8691 -6.3822,15.7528 4.3457,9.1227 8.6276,-5.3322 12.5644,-14.7464 8.7485,-20.9207 -3.8158,-6.1742 11.1536,-49.4681 33.2656,-96.2087 22.1119,-46.7405 40.3005,-94.0263 40.4192,-105.0796 0.192,-17.8638 1.6795,-17.8638 13.3897,0 9.2742,14.1477 10.5774,6.5905 4.4024,-25.5295 -5.753,-29.9246 -4.017,-42.6878 5.0444,-37.0875 9.045,5.5901 11.7294,-13.3538 7.7736,-54.8576 -4.4928,-47.1367 -2.3982,-58.2421 8.1669,-43.2997 7.8153,11.0532 14.3018,13.61 14.4146,5.6817 0.5276,-37.0714 -42.0388,-311.8061 -54.0158,-348.6316 -17.5827,-54.06179 -6.9304,-78.68909 45.1445,-104.37047 36.9063,-18.20076 38.5598,-21.035 12.426,-21.29948 -21.1116,-0.21402 -30.1452,-8.33494 -30.1452,-27.10082 0,-14.73766 8.4253,-26.79574 18.7228,-26.79574 12.5965,0 18.0764,-14.24774 16.7473,-43.543 -1.7497,-38.5672 2.4263,-44.04596 36.5436,-47.94404 35.6338,-4.07136 38.0918,-1.48958 32.8144,34.46732 -5.7046,38.86834 -5.7046,38.86834 85.3033,-5.42244 208.4156,-101.42982 287.5296,-118.73808 446.6356,-97.71324 158.6686,20.96702 224.8278,25.84282 214.8166,15.83152 -4.9206,-4.92062 -22.1906,-9.12768 -38.3778,-9.34902 -16.187,-0.22136 -27.9962,-7.72174 -26.2424,-16.66758 1.966,-10.02856 -5.298,-13.00844 -18.9452,-7.77158 -16.039,6.15476 -19.114,3.60732 -11.167,-9.25119 7.047,-11.40232 5.77,-14.53294 -3.5726,-8.75878 -7.9968,4.94228 -58.668,-5.72658 -112.6024,-23.70854 -146.3626,-48.79779 -294.6808,-65.74074 -510.8762,-58.35929 -167.098,5.70514 -205.9114,11.66086 -320.8917,49.23925 -71.9408,23.512 -137.6845,38.49514 -146.0971,33.29586 -9.0522,-5.59458 -11.6368,-3.5332 -6.3321,5.0501 10.8516,17.55819 -38.4547,35.46751 -60.365,21.92619 -10.4144,-6.43642 -11.9479,-3.74444 -4.621,8.11094 8.0296,12.99208 4.8092,15.38184 -12.0236,8.92248 -15.4935,-5.94542 -19.8624,-3.76096 -13.3979,6.69892 6.4646,10.4599 2.0957,12.64436 -13.3978,6.69894 -15.4935,-5.94542 -19.8625,-3.76096 -13.3978,6.69892 6.4645,10.4599 2.0956,12.64436 -13.398,6.69892 -15.4935,-5.9454 -19.8623,-3.76096 -13.3978,6.69894 6.4646,10.4599 2.0957,12.64434 -13.3978,6.69894 -15.4935,-5.94544 -19.8625,-3.76098 -13.3979,6.69892 6.4646,10.45988 2.0957,12.64434 -13.3978,6.69892 -15.4936,-5.9454 -19.8625,-3.76096 -13.3979,6.69894 6.4646,10.45988 2.0956,12.64434 -13.3979,6.69892 -15.4935,-5.94542 -19.8623,-3.76096 -13.3978,6.69892 6.4645,10.4599 2.0957,12.64436 -13.3978,6.69894 -13.0923,-5.02396 -19.6182,-3.36574 -15.1577,3.85152 9.7651,15.80032 -69.3212,58.12962 -87.5537,46.8613 -7.335,-4.53328 -11.6797,-0.25794 -9.6549,9.50086 2.0248,9.75876 -6.633,16.94524 -19.2394,15.96994 -12.6066,-0.9757 -21.6501,4.30012 -20.0968,11.72316 1.5532,7.42294 -5.5515,16.53936 -15.7883,20.25866 -12.8058,4.65272 -15.2704,0.9958 -7.9003,-11.72316 6.3243,-10.91376 5.7162,-13.9123 -1.4846,-7.32054 -6.708,6.14066 -12.1964,17.69632 -12.1964,25.67926 0,7.98284 -8.3754,17.30614 -18.6122,20.71838 -12.7302,4.24344 -15.227,0.36174 -7.9004,-12.28134 6.3243,-10.91386 5.7163,-13.9123 -1.4845,-7.32056 -6.708,6.14068 -12.2887,15.18422 -12.4015,20.09678 -0.3859,16.79166 -21.4554,42.42652 -34.871,42.42652 -7.3688,0 -9.6717,-6.02904 -5.1175,-13.39782 16.7375,-27.08182 -2.6299,-12.1065 -47.6137,36.816 -46.1713,50.21385 -46.1713,50.21385 0.7215,10.07644 46.8924,-40.1374 46.8924,-40.1374 0.421,10.38622 -25.5593,27.78789 -54.51029,47.43879 -64.33561,43.66839 -11.04168,-4.2371 -14.2007,-0.9275 -8.27164,8.666 6.46454,10.4599 2.0957,12.6444 -13.39782,6.699 -12.6448,-4.8523 -19.8519,-3.7439 -16.01584,2.463 3.83608,6.2069 -8.19256,18.1959 -26.73032,26.6422 -41.38492,18.8563 -49.84776,19.2798 -39.14302,1.9591 13.47812,-21.808 -1.89894,-15.2704 -21.80572,9.2708 -15.69558,19.3496 -15.60244,20.9894 0.63608,11.2 14.11276,-8.5078 16.89848,-5.9293 10.79046,9.9881 -4.52852,11.8011 -15.22572,47.4232 -23.77168,79.1601 -20.83374,77.3708 -64.52452,161.0375 -79.31906,151.8939 -6.57712,-4.0648 -16.32102,-0.3316 -21.65316,8.2958 -6.40432,10.3624 -3.85494,12.0773 7.51128,5.0525 11.54082,-7.1325 14.97952,-4.5056 10.44376,7.9783 -3.71928,10.2368 -12.8357,17.3415 -20.2587,15.7883 -7.42302,-1.5533 -12.69842,7.4903 -11.72312,20.0968 0.97528,12.6064 -6.2112,21.2642 -15.96994,19.2394 -9.75874,-2.0248 -14.00172,2.3723 -9.42882,9.7715 11.20716,18.1335 -17.79694,70.3683 -33.63712,60.5786 -7.10152,-4.3891 -8.73324,2.2339 -3.7499,15.2204 6.45936,16.8328 4.0696,20.0532 -8.92246,12.0236 -11.6128,-7.1771 -14.5394,-5.7805 -8.46902,4.0416 12.03952,19.4804 -42.38922,126.5087 -59.08724,116.1887 -7.28204,-4.5006 -8.95482,1.9718 -3.9084,15.1225 5.94542,15.4935 3.76096,19.8625 -6.69892,13.3979 -10.4599,-6.4646 -12.64436,-2.0956 -6.69894,13.3978 5.94542,15.4935 3.76096,19.8624 -6.69894,13.3979 -10.45988,-6.4646 -12.64434,-2.0957 -6.69892,13.3978 5.94542,15.4935 3.76096,19.8625 -6.69892,13.3979 -10.4599,-6.4646 -12.64436,-2.0956 -6.69894,13.3979 5.94542,15.4935 3.76096,19.8624 -6.69892,13.3978 -10.4599,-6.4645 -12.64436,-2.0956 -6.69892,13.3979 5.9454,15.4934 3.76096,19.8624 -6.69894,13.3978 -10.4599,-6.4645 -12.64434,-2.0957 -6.69894,13.3979 4.8819,12.722 3.31736,19.5882 -3.50292,15.3731 -6.77886,-4.1896 -12.3252,6.5634 -12.3252,23.8955 0,31.5128 0,31.5128 34.22774,-1.2794 36.54288,-35.0103 60.69344,-43.6593 44.80208,-16.045 -5.59942,9.7302 -4.5273,12.0693 2.55876,5.5824 6.70802,-6.1406 12.19642,-18.1987 12.19642,-26.7956 0,-19.5341 128.748,-84.8402 202.7253,-102.8302 36.31188,-8.8306 83.79606,-38.843 138.05728,-87.2594 45.48958,-40.5895 124.68305,-94.9373 175.98525,-120.7728 51.3024,-25.8354 133.8735,-71.913 183.4913,-102.3946 49.618,-30.4816 135.2955,-76.0458 190.3947,-101.2538 100.1804,-45.8328 100.1804,-45.8328 123.7553,-16.719 12.9662,16.0126 30.485,54.1664 38.9307,84.7864 18.4941,67.0506 28.5059,437.6815 11.0678,409.724 -7.5369,-12.0835 -9.1862,0.5909 -4.4877,34.4864 5.7217,41.276 4.0015,48.9732 -7.4856,33.4946 -11.6363,-15.6795 -12.9231,-11.5591 -5.8545,18.7457 6.4275,27.557 4.5995,36.0858 -6.292,29.3545 -8.4435,-5.2184 -15.3519,-5.9233 -15.3519,-1.5667 0,6.1167 40.5641,27.1537 63.6399,33.0044 1.8422,0.4672 1.8422,-6.687 0,-15.8981 z m 30.1452,-27.6385 c 0,-2.3058 19.5944,-21.9002 43.543,-43.5431 43.543,-39.3507 43.543,-39.3507 4.1923,4.1924 -36.6804,40.5882 -47.7353,49.7014 -47.7353,39.3507 z m -36.8149,-270.4637 c 0.1488,-29.4754 2.8924,-39.9558 6.0971,-23.2901 3.2046,16.6658 3.083,40.7819 -0.2703,53.5914 -3.3534,12.8095 -5.9754,-0.826 -5.8267,-30.3013 z M 405.72823,1861.1636 c 0,-3.6845 -3.0145,-6.699 -6.69892,-6.699 -3.6844,0 -6.69892,3.0145 -6.69892,6.699 0,3.6844 3.01452,6.699 6.69892,6.699 3.68442,0 6.69892,-3.0146 6.69892,-6.699 z m 80.38714,-26.7958 c 0,-3.6843 -3.01452,-6.6988 -6.69892,-6.6988 -3.6844,0 -6.69892,3.0145 -6.69892,6.6988 0,3.6845 3.01452,6.699 6.69892,6.699 3.6844,0 6.69892,-3.0145 6.69892,-6.699 z m 13.39786,-26.7956 c 0,-3.6844 -3.0145,-6.699 -6.69892,-6.699 -3.68442,0 -6.69894,3.0146 -6.69894,6.699 0,3.6843 3.01452,6.6989 6.69894,6.6989 3.68442,0 6.69892,-3.0146 6.69892,-6.6989 z m 140.6775,-46.8925 c 4.55418,-7.3688 5.26582,-13.3979 1.5814,-13.3979 -3.6844,0 -10.42508,6.0291 -14.97926,13.3979 -4.55418,7.3688 -5.26582,13.3978 -1.5814,13.3978 3.68442,0 10.42508,-6.029 14.97926,-13.3978 z m 33.49464,-20.0968 c 0,-3.6845 -3.01452,-6.699 -6.69892,-6.699 -3.68442,0 -6.69894,3.0145 -6.69894,6.699 0,3.6844 3.01452,6.6989 6.69894,6.6989 3.6844,0 6.69892,-3.0145 6.69892,-6.6989 z m 53.59142,-26.7958 c 0,-3.6843 -3.0145,-6.6988 -6.69892,-6.6988 -3.6844,0 -6.69892,3.0145 -6.69892,6.6988 0,3.6845 3.01452,6.699 6.69892,6.699 3.68442,0 6.69892,-3.0145 6.69892,-6.699 z m 35.72764,-15.6307 c -4.91256,-4.9126 -12.95128,-4.9126 -17.86382,0 -4.91254,4.9125 -0.8932,8.9319 8.9319,8.9319 9.8251,0 13.84446,-4.0194 8.93192,-8.9319 z m 53.59146,-13.398 c -4.91256,-4.9125 -12.95126,-4.9125 -17.86382,0 -4.91258,4.9126 -0.89332,8.932 8.9319,8.932 9.82502,0 13.84438,-4.0194 8.93192,-8.932 z m 1062.89661,-11.1648 c 0,-3.6844 -3.0146,-6.6989 -6.699,-6.6989 -3.6844,0 -6.699,3.0145 -6.699,6.6989 0,3.6844 3.0146,6.6989 6.699,6.6989 3.6844,0 6.699,-3.0145 6.699,-6.6989 z m -844.0651,-26.7957 c 0,-3.6844 -3.0145,-6.6989 -6.6988,-6.6989 -3.6844,0 -6.699,3.0145 -6.699,6.6989 0,3.6844 3.0146,6.6989 6.699,6.6989 3.6843,0 6.6988,-3.0145 6.6988,-6.6989 z m 857.4629,0 c 0,-3.6844 -3.0145,-6.6989 -6.699,-6.6989 -3.6843,0 -6.6988,3.0145 -6.6988,6.6989 0,3.6844 3.0145,6.6989 6.6988,6.6989 3.6845,0 6.699,-3.0145 6.699,-6.6989 z m -897.65641,-20.0968 c 0,-7.3688 -2.6587,-13.3979 -5.90814,-13.3979 -3.24956,0 -9.6344,6.0291 -14.18864,13.3979 -4.55412,7.3688 -1.89542,13.3979 5.90826,13.3979 7.80368,0 14.18852,-6.0291 14.18852,-13.3979 z m -46.89242,-13.3979 c 4.55414,-7.3688 5.26576,-13.3978 1.58142,-13.3978 -3.68446,0 -10.42512,6.029 -14.97934,13.3978 -4.55414,7.3689 -5.26576,13.3979 -1.58142,13.3979 3.68444,0 10.4251,-6.029 14.97934,-13.3979 z m 957.94663,6.699 c 0,-3.6845 -3.0145,-6.699 -6.6989,-6.699 -3.6844,0 -6.6989,3.0145 -6.6989,6.699 0,3.6844 3.0145,6.6989 6.6989,6.6989 3.6844,0 6.6989,-3.0145 6.6989,-6.6989 z m -878.1317,-19.171 c 4.2395,-6.8597 2.5856,-15.6381 -3.6753,-19.5075 -6.2608,-3.8694 -11.3834,1.743 -11.3834,12.4721 0,22.5911 4.2249,24.5649 15.0587,7.0354 z m 74.2603,5.7732 c 0,-3.6845 -3.0145,-6.699 -6.6989,-6.699 -3.6844,0 -6.6989,3.0145 -6.6989,6.699 0,3.6843 3.0145,6.6988 6.6989,6.6988 3.6844,0 6.6989,-3.0145 6.6989,-6.6988 z m -495.72061,-13.398 c 0,-3.6843 -3.01452,-6.6988 -6.69892,-6.6988 -3.68442,0 -6.69894,3.0145 -6.69894,6.6988 0,3.6845 3.01452,6.699 6.69894,6.699 3.6844,0 6.69892,-3.0145 6.69892,-6.699 z m 522.51641,0 c 0,-3.6843 -3.0145,-6.6988 -6.699,-6.6988 -3.6844,0 -6.6989,3.0145 -6.6989,6.6988 0,3.6845 3.0145,6.699 6.6989,6.699 3.6845,0 6.699,-3.0145 6.699,-6.699 z m 790.4735,0 c 0,-3.6843 -3.0145,-6.6988 -6.6989,-6.6988 -3.6845,0 -6.699,3.0145 -6.699,6.6988 0,3.6845 3.0145,6.699 6.699,6.699 3.6844,0 6.6989,-3.0145 6.6989,-6.699 z m -857.4628,-13.3978 c 0,-3.6844 -3.0145,-6.699 -6.699,-6.699 -3.6843,0 -6.6988,3.0146 -6.6988,6.699 0,3.6845 3.0145,6.699 6.6988,6.699 3.6845,0 6.699,-3.0145 6.699,-6.699 z m 93.7849,0 c 0,-3.6844 -3.0145,-6.699 -6.6988,-6.699 -3.6845,0 -6.699,3.0146 -6.699,6.699 0,3.6845 3.0145,6.699 6.699,6.699 3.6843,0 6.6988,-3.0145 6.6988,-6.699 z m 156.3084,-15.6309 c -4.9126,-4.9125 -8.9319,-0.8933 -8.9319,8.9319 0,9.8252 4.0193,13.8445 8.9319,8.932 4.9125,-4.9126 4.9125,-12.9513 0,-17.8639 z m -692.22255,2.2331 c 0,-3.6845 -3.01452,-6.699 -6.69894,-6.699 -3.6844,0 -6.69892,3.0145 -6.69892,6.699 0,3.6843 3.01452,6.6988 6.69892,6.6988 3.68442,0 6.69894,-3.0145 6.69894,-6.6988 z m 381.83885,-6.699 c 4.5543,-7.3688 5.2659,-13.3978 1.5815,-13.3978 -3.68447,0 -10.42513,6.029 -14.97927,13.3978 -4.55422,7.3688 -5.26586,13.3978 -1.5814,13.3978 3.68434,0 10.4251,-6.029 14.97917,-13.3978 z m 180.8711,6.699 c 0,-3.6845 -3.0145,-6.699 -6.699,-6.699 -3.6843,0 -6.6989,3.0145 -6.6989,6.699 0,3.6843 3.0146,6.6988 6.6989,6.6988 3.6845,0 6.699,-3.0145 6.699,-6.6988 z m 93.7849,0 c 0,-3.6845 -3.0145,-6.699 -6.6988,-6.699 -3.6845,0 -6.699,3.0145 -6.699,6.699 0,3.6843 3.0145,6.6988 6.699,6.6988 3.6843,0 6.6988,-3.0145 6.6988,-6.6988 z m 933.3843,-2.2331 c -4.9126,-4.9125 -12.9514,-4.9125 -17.864,0 -4.9124,4.9126 -0.8932,8.9319 8.932,8.9319 9.825,0 13.8444,-4.0193 8.932,-8.9319 z m -1094.1585,-11.1648 c 0,-3.6844 -3.0146,-6.6989 -6.6989,-6.6989 -3.6845,0 -6.699,3.0145 -6.699,6.6989 0,3.6844 3.0145,6.6989 6.699,6.6989 3.6843,0 6.6989,-3.0145 6.6989,-6.6989 z m 93.785,0 c 0,-3.6844 -3.0145,-6.6989 -6.6989,-6.6989 -3.6845,0 -6.699,3.0145 -6.699,6.6989 0,3.6844 3.0145,6.6989 6.699,6.6989 3.6844,0 6.6989,-3.0145 6.6989,-6.6989 z m 133.9785,0 c 0,-3.6844 -3.0145,-6.6989 -6.6989,-6.6989 -3.6844,0 -6.6989,3.0145 -6.6989,6.6989 0,3.6844 3.0145,6.6989 6.6989,6.6989 3.6844,0 6.6989,-3.0145 6.6989,-6.6989 z m 589.5058,0 c 0,-3.6844 -3.0146,-6.6989 -6.699,-6.6989 -3.6844,0 -6.6989,3.0145 -6.6989,6.6989 0,3.6844 3.0145,6.6989 6.6989,6.6989 3.6844,0 6.699,-3.0145 6.699,-6.6989 z M 633.49181,1539.615 c 0,-3.6844 -3.01452,-6.6989 -6.69894,-6.6989 -3.6844,0 -6.69892,3.0145 -6.69892,6.6989 0,3.6845 3.01452,6.699 6.69892,6.699 3.68442,0 6.69894,-3.0145 6.69894,-6.699 z m 401.93559,0 c 0,-3.6844 -3.0145,-6.6989 -6.6988,-6.6989 -3.6844,0 -6.699,3.0145 -6.699,6.6989 0,3.6845 3.0146,6.699 6.699,6.699 3.6843,0 6.6988,-3.0145 6.6988,-6.699 z m 53.5915,0 c 0,-3.6844 -3.0145,-6.6989 -6.6989,-6.6989 -3.6845,0 -6.699,3.0145 -6.699,6.6989 0,3.6845 3.0145,6.699 6.699,6.699 3.6844,0 6.6989,-3.0145 6.6989,-6.699 z m 53.5914,0 c 0,-3.6844 -3.0145,-6.6989 -6.699,-6.6989 -3.6843,0 -6.6988,3.0145 -6.6988,6.6989 0,3.6845 3.0145,6.699 6.6988,6.699 3.6845,0 6.699,-3.0145 6.699,-6.699 z m 93.785,0 c 0,-3.6844 -3.0146,-6.6989 -6.6989,-6.6989 -3.6844,0 -6.699,3.0145 -6.699,6.6989 0,3.6845 3.0146,6.699 6.699,6.699 3.6843,0 6.6989,-3.0145 6.6989,-6.699 z m 40.1935,0.7908 c 0,-3.2495 -6.9605,-10.21 -15.4679,-15.4679 -9.5834,-5.923 -11.8311,-3.6752 -5.9082,5.9082 9.5452,15.4444 21.3761,20.7354 21.3761,9.5597 z m 40.1936,0.8501 c 0,-2.7822 -10.5508,-13.333 -23.4462,-23.4463 -21.2498,-16.6651 -21.7236,-16.1912 -5.0585,5.0585 17.5026,22.3175 28.5047,29.4147 28.5047,18.3878 z m 870.8607,-1.6405 c 0,-3.6844 -3.0144,-6.6989 -6.6988,-6.6989 -3.6844,0 -6.699,3.0145 -6.699,6.6989 0,3.6845 3.0146,6.699 6.699,6.699 3.6844,0 6.6988,-3.0145 6.6988,-6.699 z m 124.819,-33.2498 c 16.091,-16.9006 20.938,-26.0448 10.771,-20.3205 -12.5448,7.0631 -16.4916,4.4264 -12.2814,-8.2046 3.4122,-10.2367 12.7356,-18.6122 20.7186,-18.6122 7.9828,0 19.5384,-5.4884 25.679,-12.1964 6.4868,-7.086 4.1478,-8.1582 -5.5824,-2.5587 -20.7086,11.9172 -20.9572,5.159 -1.3904,-37.7858 8.4464,-18.5377 19.6336,-31.0619 24.8604,-27.8315 5.2268,3.2303 6.8878,-10.5241 3.6908,-30.5653 -3.5284,-22.1211 -1.3562,-30.206 5.5288,-20.5764 6.6568,9.3108 11.2402,-19.1875 11.0972,-69.0003 -0.134,-46.6745 -3.9166,-78.9463 -8.4058,-71.7152 -4.489,7.2311 -12.1552,-11.8241 -17.0356,-42.3449 -4.8804,-30.5207 -5.7006,-60.6263 -1.8226,-66.9011 14.7494,-23.8649 -32.079,-4.1032 -118.1336,49.8529 -49.1198,30.798 -89.3086,62.5996 -89.3086,70.67 0,8.0706 -6.9606,10.3719 -15.468,5.114 -9.6602,-5.9704 -11.828,-3.67 -5.773,6.1269 5.332,8.6275 16.3318,11.5845 24.4436,6.5711 9.5804,-5.921 11.6574,-1.0587 5.9266,13.8751 -4.8522,12.6448 -3.3482,19.6073 3.3424,15.4724 6.6906,-4.135 18.1992,12.1318 25.5748,36.1482 16.084,52.3731 16.3534,240.0163 0.3306,230.1136 -6.2008,-3.8324 -7.7284,2.2724 -3.3946,13.566 11.4086,29.7301 81.0822,18.4412 116.6324,-18.8973 z m -44.4318,21.4924 c 0,-2.7821 10.5508,-13.3329 23.4464,-23.4462 21.2496,-16.6652 21.7236,-16.1913 5.0584,5.0585 -17.5026,22.3174 -28.5048,29.4146 -28.5048,18.3877 z m -1152.2157,-1.6408 c 0,-3.6844 -3.0146,-6.6989 -6.6989,-6.6989 -3.6845,0 -6.699,3.0145 -6.699,6.6989 0,3.6844 3.0145,6.6989 6.699,6.6989 3.6843,0 6.6989,-3.0145 6.6989,-6.6989 z m 93.785,0 c 0,-3.6844 -3.0145,-6.6989 -6.6989,-6.6989 -3.6845,0 -6.699,3.0145 -6.699,6.6989 0,3.6844 3.0145,6.6989 6.699,6.6989 3.6844,0 6.6989,-3.0145 6.6989,-6.6989 z m 133.9785,0 c 0,-3.6844 -3.0145,-6.6989 -6.6989,-6.6989 -3.6844,0 -6.6989,3.0145 -6.6989,6.6989 0,3.6844 3.0145,6.6989 6.6989,6.6989 3.6844,0 6.6989,-3.0145 6.6989,-6.6989 z m 66.9894,0 c 0,-3.6844 -3.0146,-6.6989 -6.699,-6.6989 -3.6844,0 -6.699,3.0145 -6.699,6.6989 0,3.6844 3.0146,6.6989 6.699,6.6989 3.6844,0 6.699,-3.0145 6.699,-6.6989 z m 66.9893,0 c 0,-3.6844 -3.0146,-6.6989 -6.699,-6.6989 -3.6844,0 -6.6989,3.0145 -6.6989,6.6989 0,3.6844 3.0145,6.6989 6.6989,6.6989 3.6844,0 6.699,-3.0145 6.699,-6.6989 z m -401.9358,-13.3979 c 0,-3.6843 -3.0145,-6.6989 -6.6989,-6.6989 -3.6844,0 -6.6989,3.0146 -6.6989,6.6989 0,3.6844 3.0145,6.699 6.6989,6.699 3.6844,0 6.6989,-3.0146 6.6989,-6.699 z m 66.9893,0 c 0,-3.6843 -3.0145,-6.6989 -6.699,-6.6989 -3.6843,0 -6.6988,3.0146 -6.6988,6.6989 0,3.6844 3.0145,6.699 6.6988,6.699 3.6845,0 6.699,-3.0146 6.699,-6.699 z m 93.785,0 c 0,-3.6843 -3.0146,-6.6989 -6.6989,-6.6989 -3.6844,0 -6.699,3.0146 -6.699,6.6989 0,3.6844 3.0146,6.699 6.699,6.699 3.6843,0 6.6989,-3.0146 6.6989,-6.699 z m 200.9678,0 c 0,-3.6843 -3.0145,-6.6989 -6.6989,-6.6989 -3.6844,0 -6.6989,3.0146 -6.6989,6.6989 0,3.6844 3.0145,6.699 6.6989,6.699 3.6844,0 6.6989,-3.0146 6.6989,-6.699 z m 80.3872,0 c 0,-3.6843 -3.0145,-6.6989 -6.6989,-6.6989 -3.6845,0 -6.699,3.0146 -6.699,6.6989 0,3.6844 3.0145,6.699 6.699,6.699 3.6844,0 6.6989,-3.0146 6.6989,-6.699 z m -415.3336,-13.3978 c 0,-3.6845 -3.0145,-6.699 -6.6989,-6.699 -3.6844,0 -6.6989,3.0145 -6.6989,6.699 0,3.6843 3.0145,6.6989 6.6989,6.6989 3.6844,0 6.6989,-3.0146 6.6989,-6.6989 z m 66.9893,0 c 0,-3.6845 -3.0145,-6.699 -6.6989,-6.699 -3.6845,0 -6.699,3.0145 -6.699,6.699 0,3.6843 3.0145,6.6989 6.699,6.6989 3.6844,0 6.6989,-3.0146 6.6989,-6.6989 z m 40.1936,0 c 0,-3.6845 -3.0145,-6.699 -6.6989,-6.699 -3.6845,0 -6.699,3.0145 -6.699,6.699 0,3.6843 3.0145,6.6989 6.699,6.6989 3.6844,0 6.6989,-3.0146 6.6989,-6.6989 z m 107.1828,0 c 0,-3.6845 -3.0145,-6.699 -6.6989,-6.699 -3.6844,0 -6.6989,3.0145 -6.6989,6.699 0,3.6843 3.0145,6.6989 6.6989,6.6989 3.6844,0 6.6989,-3.0146 6.6989,-6.6989 z m 156.3084,-2.233 c -4.9126,-4.9125 -12.9513,-4.9125 -17.8639,0 -4.9125,4.9125 -0.8933,8.9319 8.932,8.9319 9.8251,0 13.8444,-4.0194 8.9319,-8.9319 z m 71.4552,2.233 c 0,-3.6845 -3.0145,-6.699 -6.6989,-6.699 -3.6844,0 -6.6989,3.0145 -6.6989,6.699 0,3.6843 3.0145,6.6989 6.6989,6.6989 3.6844,0 6.6989,-3.0146 6.6989,-6.6989 z m -415.3335,-13.398 c 0,-3.6843 -3.0145,-6.6988 -6.699,-6.6988 -3.6844,0 -6.6989,3.0145 -6.6989,6.6988 0,3.6845 3.0145,6.699 6.6989,6.699 3.6845,0 6.699,-3.0145 6.699,-6.699 z m 214.3656,0 c 0,-3.6843 -3.0145,-6.6988 -6.6989,-6.6988 -3.6844,0 -6.6989,3.0145 -6.6989,6.6988 0,3.6845 3.0145,6.699 6.6989,6.699 3.6844,0 6.6989,-3.0145 6.6989,-6.699 z m 160.7743,0 c 0,-3.6843 -3.0145,-6.6988 -6.6988,-6.6988 -3.6845,0 -6.699,3.0145 -6.699,6.6988 0,3.6845 3.0145,6.699 6.699,6.699 3.6843,0 6.6988,-3.0145 6.6988,-6.699 z m 66.9893,0 c 0,-3.6843 -3.0145,-6.6988 -6.6989,-6.6988 -3.6844,0 -6.6989,3.0145 -6.6989,6.6988 0,3.6845 3.0145,6.699 6.6989,6.699 3.6844,0 6.6989,-3.0145 6.6989,-6.699 z m -415.3336,-13.3978 c 0,-3.6844 -3.0145,-6.6989 -6.6988,-6.6989 -3.6845,0 -6.699,3.0145 -6.699,6.6989 0,3.6845 3.0145,6.699 6.699,6.699 3.6843,0 6.6988,-3.0145 6.6988,-6.699 z m 93.7851,0.7908 c 0,-3.2495 -6.9606,-10.21 -15.468,-15.4679 -9.5835,-5.9228 -11.8311,-3.6752 -5.9082,5.9082 9.5452,15.4445 21.3762,20.7355 21.3762,9.5597 z m 53.5914,-0.7908 c 0,-3.6844 -3.0145,-6.6989 -6.699,-6.6989 -3.6843,0 -6.6988,3.0145 -6.6988,6.6989 0,3.6845 3.0145,6.699 6.6988,6.699 3.6845,0 6.699,-3.0145 6.699,-6.699 z m 147.3764,0 c 0,-3.6844 -3.0145,-6.6989 -6.6989,-6.6989 -3.6845,0 -6.699,3.0145 -6.699,6.6989 0,3.6845 3.0145,6.699 6.699,6.699 3.6844,0 6.6989,-3.0145 6.6989,-6.699 z m 80.3872,0 c 0,-3.6844 -3.0146,-6.6989 -6.699,-6.6989 -3.6843,0 -6.6989,3.0145 -6.6989,6.6989 0,3.6845 3.0146,6.699 6.6989,6.699 3.6844,0 6.699,-3.0145 6.699,-6.699 z m -348.3443,-13.3978 c 0,-3.6844 -3.0145,-6.6989 -6.699,-6.6989 -3.6843,0 -6.6989,3.0145 -6.6989,6.6989 0,3.6843 3.0146,6.6989 6.6989,6.6989 3.6845,0 6.699,-3.0146 6.699,-6.6989 z m 100.4839,-6.6989 c 4.5542,-7.3688 5.2659,-13.3978 1.5814,-13.3978 -3.6844,0 -10.4251,6.029 -14.9792,13.3978 -4.5543,7.3687 -5.2659,13.3978 -1.5814,13.3978 3.6844,0 10.4251,-6.0291 14.9792,-13.3978 z m 194.269,6.6989 c 0,-3.6844 -3.0146,-6.6989 -6.699,-6.6989 -3.6844,0 -6.6989,3.0145 -6.6989,6.6989 0,3.6843 3.0145,6.6989 6.6989,6.6989 3.6844,0 6.699,-3.0146 6.699,-6.6989 z m 93.7849,0 c 0,-3.6844 -3.0145,-6.6989 -6.6989,-6.6989 -3.6844,0 -6.6989,3.0145 -6.6989,6.6989 0,3.6843 3.0145,6.6989 6.6989,6.6989 3.6844,0 6.6989,-3.0146 6.6989,-6.6989 z m -877.55953,-20.0967 c 4.55418,-7.3689 5.2658,-13.398 1.58138,-13.398 -3.6844,0 -10.42506,6.0291 -14.97926,13.398 -4.55418,7.3687 -5.2658,13.3978 -1.58138,13.3978 3.6844,0 10.42506,-6.0291 14.97926,-13.3978 z m 716.78533,6.6988 c 0,-3.6843 -3.0146,-6.6988 -6.699,-6.6988 -3.6844,0 -6.699,3.0145 -6.699,6.6988 0,3.6845 3.0146,6.699 6.699,6.699 3.6844,0 6.699,-3.0145 6.699,-6.699 z m 93.7849,0 c 0,-3.6843 -3.0145,-6.6988 -6.6988,-6.6988 -3.6845,0 -6.699,3.0145 -6.699,6.6988 0,3.6845 3.0145,6.699 6.699,6.699 3.6843,0 6.6988,-3.0145 6.6988,-6.699 z m 93.7851,0 c 0,-3.6843 -3.0145,-6.6988 -6.699,-6.6988 -3.6844,0 -6.6989,3.0145 -6.6989,6.6988 0,3.6845 3.0145,6.699 6.6989,6.699 3.6845,0 6.699,-3.0145 6.699,-6.699 z m -269.015,-37.6347 c -0.7566,-11.4209 -2.9865,-11.1724 -7.8431,0.8742 -3.7321,9.2569 -13.2313,12.8472 -21.1092,7.9782 -8.5373,-5.2763 -10.4072,-2.5156 -4.6289,6.834 11.3997,18.445 35.1096,7.3697 33.5812,-15.6864 z m 108.2406,24.2369 c 0,-3.6844 -3.0145,-6.699 -6.6989,-6.699 -3.6844,0 -6.6989,3.0146 -6.6989,6.699 0,3.6844 3.0145,6.699 6.6989,6.699 3.6844,0 6.6989,-3.0146 6.6989,-6.699 z m 107.1829,0 c 0,-3.6844 -3.0145,-6.699 -6.6989,-6.699 -3.6844,0 -6.6989,3.0146 -6.6989,6.699 0,3.6844 3.0145,6.699 6.6989,6.699 3.6844,0 6.6989,-3.0146 6.6989,-6.699 z m -294.7528,-13.3978 c 0,-3.6845 -3.0145,-6.699 -6.699,-6.699 -3.6844,0 -6.6989,3.0145 -6.6989,6.699 0,3.6843 3.0145,6.6988 6.6989,6.6988 3.6845,0 6.699,-3.0145 6.699,-6.6988 z m 214.3657,0 c 0,-3.6845 -3.0146,-6.699 -6.699,-6.699 -3.6844,0 -6.6989,3.0145 -6.6989,6.699 0,3.6843 3.0145,6.6988 6.6989,6.6988 3.6844,0 6.699,-3.0145 6.699,-6.6988 z m 53.5914,0 c 0,-3.6845 -3.0145,-6.699 -6.6989,-6.699 -3.6845,0 -6.699,3.0145 -6.699,6.699 0,3.6843 3.0145,6.6988 6.699,6.6988 3.6844,0 6.6989,-3.0145 6.6989,-6.6988 z m 66.9893,0 c 0,-3.6845 -3.0146,-6.699 -6.6989,-6.699 -3.6844,0 -6.699,3.0145 -6.699,6.699 0,3.6843 3.0146,6.6988 6.699,6.6988 3.6843,0 6.6989,-3.0145 6.6989,-6.6988 z m 790.4737,0 c 0,-3.6845 -3.0146,-6.699 -6.699,-6.699 -3.6844,0 -6.699,3.0145 -6.699,6.699 0,3.6843 3.0146,6.6988 6.699,6.6988 3.6844,0 6.699,-3.0145 6.699,-6.6988 z m -1098.6245,-13.3979 c 0,-3.6844 -3.0145,-6.6989 -6.6988,-6.6989 -3.6845,0 -6.699,3.0145 -6.699,6.6989 0,3.6844 3.0145,6.6989 6.699,6.6989 3.6843,0 6.6988,-3.0145 6.6988,-6.6989 z m 281.3551,0 c 0,-3.6844 -3.0145,-6.6989 -6.6989,-6.6989 -3.6845,0 -6.699,3.0145 -6.699,6.6989 0,3.6844 3.0145,6.6989 6.699,6.6989 3.6844,0 6.6989,-3.0145 6.6989,-6.6989 z m -200.9679,-13.3979 c 0,-3.6844 -3.0146,-6.6989 -6.6989,-6.6989 -3.6844,0 -6.699,3.0145 -6.699,6.6989 0,3.6845 3.0146,6.699 6.699,6.699 3.6843,0 6.6989,-3.0145 6.6989,-6.699 z m 40.1935,0 c 0,-3.6844 -3.0145,-6.6989 -6.6988,-6.6989 -3.6845,0 -6.699,3.0145 -6.699,6.6989 0,3.6845 3.0145,6.699 6.699,6.699 3.6843,0 6.6988,-3.0145 6.6988,-6.699 z m 66.9894,0 c 0,-3.6844 -3.0146,-6.6989 -6.699,-6.6989 -3.6844,0 -6.6989,3.0145 -6.6989,6.6989 0,3.6845 3.0145,6.699 6.6989,6.699 3.6844,0 6.699,-3.0145 6.699,-6.699 z m 66.9893,0 c 0,-3.6844 -3.0146,-6.6989 -6.699,-6.6989 -3.6843,0 -6.6989,3.0145 -6.6989,6.6989 0,3.6845 3.0146,6.699 6.6989,6.699 3.6844,0 6.699,-3.0145 6.699,-6.699 z m -214.3658,-13.3978 c 0,-3.6844 -3.0145,-6.699 -6.6989,-6.699 -3.6844,0 -6.6989,3.0146 -6.6989,6.699 0,3.6843 3.0145,6.6989 6.6989,6.6989 3.6844,0 6.6989,-3.0146 6.6989,-6.6989 z m 107.1829,0 c 0,-3.6844 -3.0145,-6.699 -6.699,-6.699 -3.6843,0 -6.6988,3.0146 -6.6988,6.699 0,3.6843 3.0145,6.6989 6.6988,6.6989 3.6845,0 6.699,-3.0146 6.699,-6.6989 z m 66.9893,0 c 0,-3.6844 -3.0145,-6.699 -6.699,-6.699 -3.6843,0 -6.6988,3.0146 -6.6988,6.699 0,3.6843 3.0145,6.6989 6.6988,6.6989 3.6845,0 6.699,-3.0146 6.699,-6.6989 z m 66.9893,0 c 0,-3.6844 -3.0145,-6.699 -6.6989,-6.699 -3.6845,0 -6.699,3.0146 -6.699,6.699 0,3.6843 3.0145,6.6989 6.699,6.6989 3.6844,0 6.6989,-3.0146 6.6989,-6.6989 z m -107.1829,-13.3979 c 0,-3.6844 -3.0145,-6.6989 -6.6989,-6.6989 -3.6845,0 -6.699,3.0145 -6.699,6.6989 0,3.6844 3.0145,6.6989 6.699,6.6989 3.6844,0 6.6989,-3.0145 6.6989,-6.6989 z m 66.9893,0 c 0,-3.6844 -3.0145,-6.6989 -6.6989,-6.6989 -3.6845,0 -6.699,3.0145 -6.699,6.6989 0,3.6844 3.0145,6.6989 6.699,6.6989 3.6844,0 6.6989,-3.0145 6.6989,-6.6989 z m 66.9893,0 c 0,-3.6844 -3.0146,-6.6989 -6.6989,-6.6989 -3.6844,0 -6.699,3.0145 -6.699,6.6989 0,3.6844 3.0146,6.6989 6.699,6.6989 3.6843,0 6.6989,-3.0145 6.6989,-6.6989 z m -227.7636,-13.3978 c 0,-3.6845 -3.0146,-6.699 -6.6989,-6.699 -3.6844,0 -6.699,3.0145 -6.699,6.699 0,3.6844 3.0146,6.6989 6.699,6.6989 3.6843,0 6.6989,-3.0145 6.6989,-6.6989 z m 26.7957,-13.3979 c 0,-3.6844 -3.0145,-6.6989 -6.6989,-6.6989 -3.6844,0 -6.6989,3.0145 -6.6989,6.6989 0,3.6844 3.0145,6.6989 6.6989,6.6989 3.6844,0 6.6989,-3.0145 6.6989,-6.6989 z m 133.9786,0 c 0,-3.6844 -3.0145,-6.6989 -6.6989,-6.6989 -3.6845,0 -6.699,3.0145 -6.699,6.6989 0,3.6844 3.0145,6.6989 6.699,6.6989 3.6844,0 6.6989,-3.0145 6.6989,-6.6989 z m -107.1828,-13.3979 c 0,-3.6843 -3.0146,-6.6988 -6.699,-6.6988 -3.6844,0 -6.699,3.0145 -6.699,6.6988 0,3.6845 3.0146,6.699 6.699,6.699 3.6844,0 6.699,-3.0145 6.699,-6.699 z m 133.9785,0 c 0,-3.6843 -3.0145,-6.6988 -6.6989,-6.6988 -3.6844,0 -6.6989,3.0145 -6.6989,6.6988 0,3.6845 3.0145,6.699 6.6989,6.699 3.6844,0 6.6989,-3.0145 6.6989,-6.699 z m 656.4951,0 c 0,-3.6843 -3.0146,-6.6988 -6.699,-6.6988 -3.6844,0 -6.699,3.0145 -6.699,6.6988 0,3.6845 3.0146,6.699 6.699,6.699 3.6844,0 6.699,-3.0145 6.699,-6.699 z m -763.678,-13.3978 c 0,-3.6845 -3.0145,-6.699 -6.6989,-6.699 -3.6844,0 -6.6989,3.0145 -6.6989,6.699 0,3.6844 3.0145,6.699 6.6989,6.699 3.6844,0 6.6989,-3.0146 6.6989,-6.699 z m 80.3872,0 c 0,-3.6845 -3.0145,-6.699 -6.6989,-6.699 -3.6845,0 -6.699,3.0145 -6.699,6.699 0,3.6844 3.0145,6.699 6.699,6.699 3.6844,0 6.6989,-3.0146 6.6989,-6.699 z m -736.88207,-13.3978 c 0,-3.6845 -3.01452,-6.699 -6.69894,-6.699 -3.6844,0 -6.69892,3.0145 -6.69892,6.699 0,3.6843 3.01452,6.6988 6.69892,6.6988 3.68442,0 6.69894,-3.0145 6.69894,-6.6988 z m 683.29067,0 c 0,-3.6845 -3.0146,-6.699 -6.699,-6.699 -3.6844,0 -6.6989,3.0145 -6.6989,6.699 0,3.6843 3.0145,6.6988 6.6989,6.6988 3.6844,0 6.699,-3.0145 6.699,-6.6988 z m 80.3871,0 c 0,-3.6845 -3.0145,-6.699 -6.6989,-6.699 -3.6844,0 -6.6989,3.0145 -6.6989,6.699 0,3.6843 3.0145,6.6988 6.6989,6.6988 3.6844,0 6.6989,-3.0145 6.6989,-6.6988 z m -53.5914,-13.398 c 0,-3.6843 -3.0145,-6.6988 -6.699,-6.6988 -3.6843,0 -6.6988,3.0145 -6.6988,6.6988 0,3.6845 3.0145,6.699 6.6988,6.699 3.6845,0 6.699,-3.0145 6.699,-6.699 z m 80.3871,0 c 0,-3.6843 -3.0145,-6.6988 -6.6989,-6.6988 -3.6844,0 -6.6989,3.0145 -6.6989,6.6988 0,3.6845 3.0145,6.699 6.6989,6.699 3.6844,0 6.6989,-3.0145 6.6989,-6.699 z m 616.3014,0 c 0,-3.6843 -3.0144,-6.6988 -6.6988,-6.6988 -3.6844,0 -6.699,3.0145 -6.699,6.6988 0,3.6845 3.0146,6.699 6.699,6.699 3.6844,0 6.6988,-3.0145 6.6988,-6.699 z m -669.8928,-13.3978 c 0,-3.6844 -3.0145,-6.6989 -6.6989,-6.6989 -3.6845,0 -6.699,3.0145 -6.699,6.6989 0,3.6845 3.0145,6.699 6.699,6.699 3.6844,0 6.6989,-3.0145 6.6989,-6.699 z m 26.7957,-13.3978 c 0,-3.6844 -3.0145,-6.699 -6.6989,-6.699 -3.6844,0 -6.6989,3.0146 -6.6989,6.699 0,3.6843 3.0145,6.6989 6.6989,6.6989 3.6844,0 6.6989,-3.0146 6.6989,-6.6989 z m 66.9893,0 c 0,-3.6844 -3.0145,-6.699 -6.699,-6.699 -3.6843,0 -6.6988,3.0146 -6.6988,6.699 0,3.6843 3.0145,6.6989 6.6988,6.6989 3.6845,0 6.699,-3.0146 6.699,-6.6989 z m 415.3335,-26.7957 c 0,-3.6845 -3.0145,-6.699 -6.6988,-6.699 -3.6845,0 -6.699,3.0145 -6.699,6.699 0,3.6844 3.0145,6.6989 6.699,6.6989 3.6843,0 6.6988,-3.0145 6.6988,-6.6989 z M 821.06179,1218.0665 c 0,-3.6844 -3.0145,-6.6989 -6.69896,-6.6989 -3.68434,0 -6.69886,3.0145 -6.69886,6.6989 0,3.6844 3.01452,6.6989 6.69886,6.6989 3.68446,0 6.69896,-3.0145 6.69896,-6.6989 z m 1232.60281,0 c 0,-3.6844 -3.0146,-6.6989 -6.699,-6.6989 -3.6843,0 -6.6989,3.0145 -6.6989,6.6989 0,3.6844 3.0146,6.6989 6.6989,6.6989 3.6844,0 6.699,-3.0145 6.699,-6.6989 z m -6.7939,-33.3411 c 4.6939,-7.5948 -0.6843,-9.8409 -12.6071,-5.2656 -23.2107,8.9068 -27.4574,18.5099 -8.1855,18.5099 6.934,0 16.2907,-5.96 20.7926,-13.2443 z m 46.9876,6.5454 c 0,-3.6845 -3.0146,-6.699 -6.699,-6.699 -3.6844,0 -6.6988,3.0145 -6.6988,6.699 0,3.6844 3.0144,6.6989 6.6988,6.6989 3.6844,0 6.699,-3.0145 6.699,-6.6989 z M 834.45963,1177.873 c 0,-3.6845 -3.01452,-6.699 -6.69886,-6.699 -3.68446,0 -6.69898,3.0145 -6.69898,6.699 0,3.6843 3.01452,6.6988 6.69898,6.6988 3.68434,0 6.69886,-3.0145 6.69886,-6.6988 z m 1152.21557,-13.398 c 0,-3.6843 -3.0145,-6.6988 -6.6988,-6.6988 -3.6845,0 -6.699,3.0145 -6.699,6.6988 0,3.6845 3.0145,6.699 6.699,6.699 3.6843,0 6.6988,-3.0145 6.6988,-6.699 z m 93.7853,0 c 0,-3.6843 -3.0146,-6.6988 -6.699,-6.6988 -3.6844,0 -6.699,3.0145 -6.699,6.6988 0,3.6845 3.0146,6.699 6.699,6.699 3.6844,0 6.699,-3.0145 6.699,-6.699 z m -53.5917,-13.3978 c 0,-3.6844 -3.0145,-6.6989 -6.6988,-6.6989 -3.6845,0 -6.699,3.0145 -6.699,6.6989 0,3.6845 3.0145,6.699 6.699,6.699 3.6843,0 6.6988,-3.0145 6.6988,-6.699 z m 147.3765,0 c 0,-3.6844 -3.0144,-6.6989 -6.6988,-6.6989 -3.6844,0 -6.699,3.0145 -6.699,6.6989 0,3.6845 3.0146,6.699 6.699,6.699 3.6844,0 6.6988,-3.0145 6.6988,-6.699 z m -120.5807,-13.3978 c 0,-3.6845 -3.0146,-6.699 -6.699,-6.699 -3.6843,0 -6.6989,3.0145 -6.6989,6.699 0,3.6843 3.0146,6.6989 6.6989,6.6989 3.6844,0 6.699,-3.0146 6.699,-6.6989 z m 66.9893,0 c 0,-3.6845 -3.0144,-6.699 -6.6988,-6.699 -3.6846,0 -6.699,3.0145 -6.699,6.699 0,3.6843 3.0144,6.6989 6.699,6.6989 3.6844,0 6.6988,-3.0146 6.6988,-6.6989 z M 847.85755,1124.2815 c 0,-3.6844 -3.01452,-6.6989 -6.69896,-6.6989 -3.68444,0 -6.69896,3.0145 -6.69896,6.6989 0,3.6844 3.01452,6.6989 6.69896,6.6989 3.68444,0 6.69896,-3.0145 6.69896,-6.6989 z m 1125.41985,0 c 0,-3.6844 -3.0145,-6.6989 -6.6989,-6.6989 -3.6844,0 -6.6989,3.0145 -6.6989,6.6989 0,3.6844 3.0145,6.6989 6.6989,6.6989 3.6844,0 6.6989,-3.0145 6.6989,-6.6989 z m 107.1831,0 c 0,-3.6844 -3.0146,-6.6989 -6.699,-6.6989 -3.6844,0 -6.699,3.0145 -6.699,6.6989 0,3.6844 3.0146,6.6989 6.699,6.6989 3.6844,0 6.699,-3.0145 6.699,-6.6989 z m 73.688,-6.6989 c 4.5544,-7.3689 5.266,-13.3979 1.5814,-13.3979 -3.6844,0 -10.425,6.029 -14.9792,13.3979 -4.5542,7.3688 -5.2658,13.3978 -1.5814,13.3978 3.6844,0 10.4252,-6.029 14.9792,-13.3978 z m 60.2904,6.6989 c 0,-3.6844 -3.0144,-6.6989 -6.699,-6.6989 -3.6842,0 -6.6988,3.0145 -6.6988,6.6989 0,3.6844 3.0146,6.6989 6.6988,6.6989 3.6846,0 6.699,-3.0145 6.699,-6.6989 z m -187.5701,-13.3979 c 0,-3.6844 -3.0145,-6.6989 -6.6988,-6.6989 -3.6845,0 -6.699,3.0145 -6.699,6.6989 0,3.6845 3.0145,6.699 6.699,6.699 3.6843,0 6.6988,-3.0145 6.6988,-6.699 z m 361.7423,0 c 0,-3.6844 -3.0146,-6.6989 -6.699,-6.6989 -3.6844,0 -6.6988,3.0145 -6.6988,6.6989 0,3.6845 3.0144,6.699 6.6988,6.699 3.6844,0 6.699,-3.0145 6.699,-6.699 z m -334.9465,-13.3978 c 0,-3.6844 -3.0146,-6.6989 -6.699,-6.6989 -3.6843,0 -6.6989,3.0145 -6.6989,6.6989 0,3.6844 3.0146,6.6989 6.6989,6.6989 3.6844,0 6.699,-3.0145 6.699,-6.6989 z m 66.9893,0 c 0,-3.6844 -3.0144,-6.6989 -6.6988,-6.6989 -3.6846,0 -6.699,3.0145 -6.699,6.6989 0,3.6844 3.0144,6.6989 6.699,6.6989 3.6844,0 6.6988,-3.0145 6.6988,-6.6989 z m 66.9892,0 c 0,-3.6844 -3.0144,-6.6989 -6.6988,-6.6989 -3.6844,0 -6.699,3.0145 -6.699,6.6989 0,3.6844 3.0146,6.6989 6.699,6.6989 3.6844,0 6.6988,-3.0145 6.6988,-6.6989 z m 66.9894,0 c 0,-3.6844 -3.0146,-6.6989 -6.699,-6.6989 -3.6844,0 -6.6988,3.0145 -6.6988,6.6989 0,3.6844 3.0144,6.6989 6.6988,6.6989 3.6844,0 6.699,-3.0145 6.699,-6.6989 z m -281.3551,-13.3979 c 0,-3.6843 -3.0145,-6.6989 -6.6989,-6.6989 -3.6844,0 -6.6989,3.0146 -6.6989,6.6989 0,3.6844 3.0145,6.699 6.6989,6.699 3.6844,0 6.6989,-3.0146 6.6989,-6.699 z m 107.1831,0 c 0,-3.6843 -3.0146,-6.6989 -6.699,-6.6989 -3.6844,0 -6.699,3.0146 -6.699,6.6989 0,3.6844 3.0146,6.699 6.699,6.699 3.6844,0 6.699,-3.0146 6.699,-6.699 z m 66.9892,0 c 0,-3.6843 -3.0146,-6.6989 -6.699,-6.6989 -3.6844,0 -6.699,3.0146 -6.699,6.6989 0,3.6844 3.0146,6.699 6.699,6.699 3.6844,0 6.699,-3.0146 6.699,-6.699 z m 140.6774,-6.6989 c 4.5542,-7.3688 5.2658,-13.3979 1.5814,-13.3979 -3.6844,0 -10.425,6.0291 -14.9792,13.3979 -4.5542,7.3688 -5.2658,13.3979 -1.5814,13.3979 3.6844,0 10.425,-6.0291 14.9792,-13.3979 z m -180.871,-6.6989 c 0,-3.6845 -3.0146,-6.699 -6.699,-6.699 -3.6844,0 -6.6988,3.0145 -6.6988,6.699 0,3.6844 3.0144,6.6989 6.6988,6.6989 3.6844,0 6.699,-3.0145 6.699,-6.6989 z m 120.5806,0 c 0,-3.6845 -3.0144,-6.699 -6.6988,-6.699 -3.6844,0 -6.699,3.0145 -6.699,6.699 0,3.6844 3.0146,6.6989 6.699,6.6989 3.6844,0 6.6988,-3.0145 6.6988,-6.6989 z m -174.1721,-13.3978 c 0,-3.6845 -3.0146,-6.699 -6.699,-6.699 -3.6843,0 -6.6989,3.0145 -6.6989,6.699 0,3.6843 3.0146,6.6988 6.6989,6.6988 3.6844,0 6.699,-3.0145 6.699,-6.6988 z m 80.3871,0 c 0,-3.6845 -3.0144,-6.699 -6.6988,-6.699 -3.6844,0 -6.699,3.0145 -6.699,6.699 0,3.6843 3.0146,6.6988 6.699,6.6988 3.6844,0 6.6988,-3.0145 6.6988,-6.6988 z m 53.5914,0 c 0,-3.6845 -3.0144,-6.699 -6.6988,-6.699 -3.6844,0 -6.699,3.0145 -6.699,6.699 0,3.6843 3.0146,6.6988 6.699,6.6988 3.6844,0 6.6988,-3.0145 6.6988,-6.6988 z m 133.9788,0 c 0,-3.6845 -3.0146,-6.699 -6.699,-6.699 -3.6844,0 -6.699,3.0145 -6.699,6.699 0,3.6843 3.0146,6.6988 6.699,6.6988 3.6844,0 6.699,-3.0145 6.699,-6.6988 z m -1406.77513,-13.398 c 0,-3.6843 -3.01452,-6.6988 -6.69888,-6.6988 -3.68444,0 -6.69896,3.0145 -6.69896,6.6988 0,3.6845 3.01452,6.699 6.69896,6.699 3.68436,0 6.69888,-3.0145 6.69888,-6.699 z m 1165.61373,0 c 0,-3.6843 -3.0146,-6.6988 -6.699,-6.6988 -3.6844,0 -6.699,3.0145 -6.699,6.6988 0,3.6845 3.0146,6.699 6.699,6.699 3.6844,0 6.699,-3.0145 6.699,-6.699 z m 133.9784,0 c 0,-3.6843 -3.0144,-6.6988 -6.699,-6.6988 -3.6842,0 -6.6988,3.0145 -6.6988,6.6988 0,3.6845 3.0146,6.699 6.6988,6.699 3.6846,0 6.699,-3.0145 6.699,-6.699 z m 53.5914,0 c 0,-3.6843 -3.0144,-6.6988 -6.6988,-6.6988 -3.6844,0 -6.699,3.0145 -6.699,6.6988 0,3.6845 3.0146,6.699 6.699,6.699 3.6844,0 6.6988,-3.0145 6.6988,-6.699 z m -241.1615,-13.3978 c 0,-3.6844 -3.0145,-6.699 -6.6988,-6.699 -3.6845,0 -6.699,3.0146 -6.699,6.699 0,3.6845 3.0145,6.699 6.699,6.699 3.6843,0 6.6988,-3.0145 6.6988,-6.699 z m 214.3659,0 c 0,-3.6844 -3.0146,-6.699 -6.699,-6.699 -3.6844,0 -6.699,3.0146 -6.699,6.699 0,3.6845 3.0146,6.699 6.699,6.699 3.6844,0 6.699,-3.0145 6.699,-6.699 z m 53.5914,0 c 0,-3.6844 -3.0146,-6.699 -6.699,-6.699 -3.6844,0 -6.6988,3.0146 -6.6988,6.699 0,3.6845 3.0144,6.699 6.6988,6.699 3.6844,0 6.699,-3.0145 6.699,-6.699 z m -220.7102,-30.90711 c -4.125,-4.1251 -14.9359,-0.01 -24.0241,9.14781 -13.1335,13.2319 -11.5946,14.7709 7.5,7.5 13.2135,-5.0313 20.6493,-12.5228 16.5241,-16.64781 z m 126.9252,17.50931 c 0,-3.6845 -3.0146,-6.699 -6.699,-6.699 -3.6844,0 -6.699,3.0145 -6.699,6.699 0,3.6843 3.0146,6.6988 6.699,6.6988 3.6844,0 6.699,-3.0145 6.699,-6.6988 z m 120.5808,0 c 0,-3.6845 -3.0146,-6.699 -6.699,-6.699 -3.6844,0 -6.699,3.0145 -6.699,6.699 0,3.6843 3.0146,6.6988 6.699,6.6988 3.6844,0 6.699,-3.0145 6.699,-6.6988 z m -321.5487,-13.3979 c 0,-3.6844 -3.0145,-6.69891 -6.699,-6.69891 -3.6844,0 -6.699,3.01451 -6.699,6.69891 0,3.6844 3.0146,6.6989 6.699,6.6989 3.6845,0 6.699,-3.0145 6.699,-6.6989 z m 160.7743,0 c 0,-3.6844 -3.0144,-6.69891 -6.699,-6.69891 -3.6844,0 -6.6988,3.01451 -6.6988,6.69891 0,3.6844 3.0144,6.6989 6.6988,6.6989 3.6846,0 6.699,-3.0145 6.699,-6.6989 z m 66.9892,0 c 0,-3.6844 -3.0144,-6.69891 -6.6988,-6.69891 -3.6844,0 -6.699,3.01451 -6.699,6.69891 0,3.6844 3.0146,6.6989 6.699,6.6989 3.6844,0 6.6988,-3.0145 6.6988,-6.6989 z m -281.355,-13.39791 c 0,-3.6844 -3.0145,-6.6989 -6.6989,-6.6989 -3.6844,0 -6.6989,3.0145 -6.6989,6.6989 0,3.6845 3.0145,6.699 6.6989,6.699 3.6844,0 6.6989,-3.0145 6.6989,-6.699 z m 80.3871,0 c 0,-3.6844 -3.0145,-6.6989 -6.6988,-6.6989 -3.6845,0 -6.699,3.0145 -6.699,6.6989 0,3.6845 3.0145,6.699 6.699,6.699 3.6843,0 6.6988,-3.0145 6.6988,-6.699 z m 107.1829,-6.6989 c 11.0534,-7.14312 14.0678,-12.98756 6.699,-12.98756 -7.3688,0 -22.4414,5.84444 -33.4946,12.98756 -11.0532,7.1432 -14.0678,12.9875 -6.699,12.9875 7.3688,0 22.4414,-5.8443 33.4946,-12.9875 z m 53.5914,6.6989 c 0,-3.6844 -3.0144,-6.6989 -6.6988,-6.6989 -3.6844,0 -6.699,3.0145 -6.699,6.6989 0,3.6845 3.0146,6.699 6.699,6.699 3.6844,0 6.6988,-3.0145 6.6988,-6.699 z m 133.9788,0 c 0,-3.6844 -3.0146,-6.6989 -6.699,-6.6989 -3.6844,0 -6.699,3.0145 -6.699,6.6989 0,3.6845 3.0146,6.699 6.699,6.699 3.6844,0 6.699,-3.0145 6.699,-6.699 z m 53.5914,0 c 0,-3.6844 -3.0146,-6.6989 -6.699,-6.6989 -3.6844,0 -6.699,3.0145 -6.699,6.6989 0,3.6845 3.0146,6.699 6.699,6.699 3.6844,0 6.699,-3.0145 6.699,-6.699 z m 90.967,-26.90886 c 2.1344,-1.75042 -8.4248,-6.40052 -23.465,-10.33366 -17.3026,-4.52468 -24.109,-1.91432 -18.533,7.10784 5.6782,9.18754 -1.7352,11.50058 -20.844,6.50352 -24.2848,-6.35058 -26.8362,-4.35708 -14.086,11.0059 13.8864,16.73216 46.4882,10.67886 76.928,-14.2836 z m -251.7414,13.51108 c 0,-3.68444 -3.0144,-6.69896 -6.699,-6.69896 -3.6842,0 -6.6988,3.01452 -6.6988,6.69896 0,3.68434 3.0146,6.69888 6.6988,6.69888 3.6846,0 6.699,-3.01454 6.699,-6.69888 z m 133.9786,0 c 0,-3.68444 -3.0146,-6.69896 -6.6988,-6.69896 -3.6846,0 -6.699,3.01452 -6.699,6.69896 0,3.68434 3.0144,6.69888 6.699,6.69888 3.6842,0 6.6988,-3.01454 6.6988,-6.69888 z M 2052.548,934.89669 c 18.3865,-16.08626 -25.2219,-1.14732 -46.5647,15.95174 -24.5222,19.6464 -24.0946,19.92524 7.4877,4.88422 18.422,-8.77356 36.0066,-18.14972 39.077,-20.83596 z m 27.9125,28.6105 c 0,-3.68434 -3.0146,-6.69886 -6.699,-6.69886 -3.6844,0 -6.699,3.01452 -6.699,6.69886 0,3.68444 3.0146,6.69896 6.699,6.69896 3.6844,0 6.699,-3.01452 6.699,-6.69896 z m 120.5806,-13.39782 c 0,-3.68446 -3.0146,-6.69896 -6.699,-6.69896 -3.6844,0 -6.699,3.0145 -6.699,6.69896 0,3.68444 3.0146,6.69896 6.699,6.69896 3.6844,0 6.699,-3.01452 6.699,-6.69896 z m 133.9786,0 c 0,-3.68446 -3.0146,-6.69896 -6.699,-6.69896 -3.6844,0 -6.6988,3.0145 -6.6988,6.69896 0,3.68444 3.0144,6.69896 6.6988,6.69896 3.6844,0 6.699,-3.01452 6.699,-6.69896 z m -187.57,-13.39784 c 0,-3.68444 -3.0146,-6.69896 -6.699,-6.69896 -3.6844,0 -6.699,3.01452 -6.699,6.69896 0,3.68436 3.0146,6.69888 6.699,6.69888 3.6844,0 6.699,-3.01452 6.699,-6.69888 z m 80.387,0 c 0,-3.68444 -3.0144,-6.69896 -6.6988,-6.69896 -3.6844,0 -6.699,3.01452 -6.699,6.69896 0,3.68436 3.0146,6.69888 6.699,6.69888 3.6844,0 6.6988,-3.01452 6.6988,-6.69888 z m 66.9894,0 c 0,-3.68444 -3.0146,-6.69896 -6.699,-6.69896 -3.6844,0 -6.6988,3.01452 -6.6988,6.69896 0,3.68436 3.0144,6.69888 6.6988,6.69888 3.6844,0 6.699,-3.01452 6.699,-6.69888 z m 80.3872,0 c 0,-3.68444 -3.0146,-6.69896 -6.699,-6.69896 -3.6844,0 -6.699,3.01452 -6.699,6.69896 0,3.68436 3.0146,6.69888 6.699,6.69888 3.6844,0 6.699,-3.01452 6.699,-6.69888 z m 102.7168,-2.23304 c -4.9126,-4.91246 -12.9512,-4.91246 -17.8638,0 -4.9126,4.91256 -0.8932,8.93192 8.9318,8.93192 9.8252,0 13.8446,-4.01936 8.932,-8.93192 z m -504.6527,-11.16488 c 0,-3.68434 -3.0145,-6.69886 -6.6989,-6.69886 -3.6844,0 -6.6989,3.01452 -6.6989,6.69886 0,3.68444 3.0145,6.69896 6.6989,6.69896 3.6844,0 6.6989,-3.01452 6.6989,-6.69896 z m 116.1149,-2.23294 c -4.9126,-4.91256 -12.9512,-4.91256 -17.8638,0 -4.9126,4.91256 -0.8934,8.9319 8.932,8.9319 9.825,0 13.8442,-4.01934 8.9318,-8.9319 z m 98.2508,2.23294 c 0,-3.68434 -3.0144,-6.69886 -6.6988,-6.69886 -3.6844,0 -6.699,3.01452 -6.699,6.69886 0,3.68444 3.0146,6.69896 6.699,6.69896 3.6844,0 6.6988,-3.01452 6.6988,-6.69896 z m 66.9894,0 c 0,-3.68434 -3.0146,-6.69886 -6.699,-6.69886 -3.6844,0 -6.6988,3.01452 -6.6988,6.69886 0,3.68444 3.0144,6.69896 6.6988,6.69896 3.6844,0 6.699,-3.01452 6.699,-6.69896 z m 160.7742,0 c 0,-3.68434 -3.0144,-6.69886 -6.6988,-6.69886 -3.6844,0 -6.699,3.01452 -6.699,6.69886 0,3.68444 3.0146,6.69896 6.699,6.69896 3.6844,0 6.6988,-3.01452 6.6988,-6.69896 z m 142.9106,-2.23294 c -4.9126,-4.91256 -12.9514,-4.91256 -17.8638,0 -4.9126,4.91256 -0.8934,8.9319 8.9318,8.9319 9.8252,0 13.8444,-4.01934 8.932,-8.9319 z m -558.2441,-11.16488 c 0,-3.68444 -3.0145,-6.69896 -6.699,-6.69896 -3.6844,0 -6.699,3.01452 -6.699,6.69896 0,3.68444 3.0146,6.69896 6.699,6.69896 3.6845,0 6.699,-3.01452 6.699,-6.69896 z m 133.9785,0 c 0,-3.68444 -3.0144,-6.69896 -6.6988,-6.69896 -3.6844,0 -6.699,3.01452 -6.699,6.69896 0,3.68444 3.0146,6.69896 6.699,6.69896 3.6844,0 6.6988,-3.01452 6.6988,-6.69896 z m 80.3872,0 c 0,-3.68444 -3.0144,-6.69896 -6.699,-6.69896 -3.6842,0 -6.6988,3.01452 -6.6988,6.69896 0,3.68444 3.0146,6.69896 6.6988,6.69896 3.6846,0 6.699,-3.01452 6.699,-6.69896 z m 66.9894,0 c 0,-3.68444 -3.0146,-6.69896 -6.699,-6.69896 -3.6844,0 -6.699,3.01452 -6.699,6.69896 0,3.68444 3.0146,6.69896 6.699,6.69896 3.6844,0 6.699,-3.01452 6.699,-6.69896 z m 93.785,0 c 0,-3.68444 -3.0146,-6.69896 -6.699,-6.69896 -3.6844,0 -6.699,3.01452 -6.699,6.69896 0,3.68444 3.0146,6.69896 6.699,6.69896 3.6844,0 6.699,-3.01452 6.699,-6.69896 z m 107.1828,0 c 0,-3.68444 -3.0146,-6.69896 -6.699,-6.69896 -3.6844,0 -6.699,3.01452 -6.699,6.69896 0,3.68444 3.0146,6.69896 6.699,6.69896 3.6844,0 6.699,-3.01452 6.699,-6.69896 z m -442.1294,-13.39782 c 0,-3.68444 -3.0145,-6.69896 -6.6989,-6.69896 -3.6845,0 -6.699,3.01452 -6.699,6.69896 0,3.68434 3.0145,6.69886 6.699,6.69886 3.6844,0 6.6989,-3.01452 6.6989,-6.69886 z m 120.5808,0 c 0,-3.68444 -3.0144,-6.69896 -6.699,-6.69896 -3.6844,0 -6.6988,3.01452 -6.6988,6.69896 0,3.68434 3.0144,6.69886 6.6988,6.69886 3.6846,0 6.699,-3.01452 6.699,-6.69886 z m 160.7744,0 c 0,-3.68444 -3.0146,-6.69896 -6.699,-6.69896 -3.6844,0 -6.699,3.01452 -6.699,6.69896 0,3.68434 3.0146,6.69886 6.699,6.69886 3.6844,0 6.699,-3.01452 6.699,-6.69886 z m 102.7168,-2.23306 c -4.9126,-4.91246 -12.9512,-4.91246 -17.8638,0 -4.9126,4.91256 -0.8932,8.93192 8.9318,8.93192 9.8252,0 13.8446,-4.01936 8.932,-8.93192 z m 125.0466,2.23306 c 0,-3.68444 -3.0146,-6.69896 -6.6988,-6.69896 -3.6844,0 -6.699,3.01452 -6.699,6.69896 0,3.68434 3.0146,6.69886 6.699,6.69886 3.6842,0 6.6988,-3.01452 6.6988,-6.69886 z m 160.7744,0 c 0,-3.68444 -3.0146,-6.69896 -6.699,-6.69896 -3.6844,0 -6.699,3.01452 -6.699,6.69896 0,3.68434 3.0146,6.69886 6.699,6.69886 3.6844,0 6.699,-3.01452 6.699,-6.69886 z m -629.6992,-13.39792 c 0,-3.68434 -3.0146,-6.69886 -6.699,-6.69886 -3.6844,0 -6.699,3.01452 -6.699,6.69886 0,3.68444 3.0146,6.69896 6.699,6.69896 3.6844,0 6.699,-3.01452 6.699,-6.69896 z m 120.5806,0 c 0,-3.68434 -3.0146,-6.69886 -6.699,-6.69886 -3.6844,0 -6.699,3.01452 -6.699,6.69886 0,3.68444 3.0146,6.69896 6.699,6.69896 3.6844,0 6.699,-3.01452 6.699,-6.69896 z m 147.3764,0 c 0,-3.68434 -3.0146,-6.69886 -6.6988,-6.69886 -3.6846,0 -6.699,3.01452 -6.699,6.69886 0,3.68444 3.0144,6.69896 6.699,6.69896 3.6842,0 6.6988,-3.01452 6.6988,-6.69896 z m 156.3084,-2.23296 c -4.9126,-4.91256 -12.9514,-4.91256 -17.8638,0 -4.9126,4.91256 -0.8934,8.93192 8.9318,8.93192 9.8252,0 13.8444,-4.01936 8.932,-8.93192 z m 118.3476,-4.4659 c -4.5542,-7.3689 -15.4608,-13.30558 -24.2368,-13.19274 -9.5878,0.1236 -7.9352,5.38896 4.1402,13.19274 25.7388,16.6337 30.3768,16.6337 20.0966,0 z m -573.8749,-8.93192 c -4.9125,-4.91256 -12.9512,-4.91256 -17.8638,0 -4.9125,4.91256 -0.8933,8.93192 8.9319,8.93192 9.8251,0 13.8445,-4.01936 8.9319,-8.93192 z m 71.4553,2.23296 c 0,-3.68444 -3.0144,-6.69896 -6.6988,-6.69896 -3.6846,0 -6.699,3.01452 -6.699,6.69896 0,3.68444 3.0144,6.69896 6.699,6.69896 3.6844,0 6.6988,-3.01452 6.6988,-6.69896 z m 107.1828,0 c 0,-3.68444 -3.0144,-6.69896 -6.6988,-6.69896 -3.6844,0 -6.699,3.01452 -6.699,6.69896 0,3.68444 3.0146,6.69896 6.699,6.69896 3.6844,0 6.6988,-3.01452 6.6988,-6.69896 z m 80.3872,0 c 0,-3.68444 -3.0146,-6.69896 -6.6988,-6.69896 -3.6846,0 -6.699,3.01452 -6.699,6.69896 0,3.68444 3.0144,6.69896 6.699,6.69896 3.6842,0 6.6988,-3.01452 6.6988,-6.69896 z m 89.319,-2.23296 c -4.9126,-4.91256 -12.9512,-4.91256 -17.8636,0 -4.9126,4.91256 -0.8934,8.93192 8.9318,8.93192 9.825,0 13.8444,-4.01936 8.9318,-8.93192 z m 299.2188,-4.466 c -11.0532,-7.1431 -26.1258,-12.98756 -33.4946,-12.98756 -7.3688,0 -4.3542,5.84446 6.699,12.98756 11.0532,7.1432 26.1258,12.98754 33.4946,12.98754 7.3688,0 4.3542,-5.84434 -6.699,-12.98754 z m -607.3694,-8.93192 c -4.9126,-4.91246 -12.9512,-4.91246 -17.8638,0 -4.9126,4.91256 -0.8932,8.93192 8.932,8.93192 9.825,0 13.8442,-4.01936 8.9318,-8.93192 z m 165.2402,2.23306 c 0,-3.68446 -3.0146,-6.69898 -6.699,-6.69898 -3.6844,0 -6.6988,3.01452 -6.6988,6.69898 0,3.68434 3.0144,6.69886 6.6988,6.69886 3.6844,0 6.699,-3.01452 6.699,-6.69886 z m 80.3872,0 c 0,-3.68446 -3.0146,-6.69898 -6.699,-6.69898 -3.6844,0 -6.6988,3.01452 -6.6988,6.69898 0,3.68434 3.0144,6.69886 6.6988,6.69886 3.6844,0 6.699,-3.01452 6.699,-6.69886 z m 130.3498,-1.39562 c -4.4518,-4.45206 -16.0074,-4.92804 -25.679,-1.0578 -10.688,4.277 -7.5132,7.45168 8.0944,8.09458 14.1236,0.5818 22.0368,-2.58484 17.5846,-7.03678 z m 298.3816,1.39562 c 0,-3.68446 -3.0146,-6.69898 -6.699,-6.69898 -3.6844,0 -6.6988,3.01452 -6.6988,6.69898 0,3.68434 3.0144,6.69886 6.6988,6.69886 3.6844,0 6.699,-3.01452 6.699,-6.69886 z m -736.8823,-13.39794 c 0,-3.68434 -3.0145,-6.69886 -6.6988,-6.69886 -3.6845,0 -6.699,3.01452 -6.699,6.69886 0,3.68446 3.0145,6.69896 6.699,6.69896 3.6843,0 6.6988,-3.0145 6.6988,-6.69896 z m 93.7851,0 c 0,-3.68434 -3.0144,-6.69886 -6.6988,-6.69886 -3.6846,0 -6.699,3.01452 -6.699,6.69886 0,3.68446 3.0144,6.69896 6.699,6.69896 3.6844,0 6.6988,-3.0145 6.6988,-6.69896 z m 66.9892,0 c 0,-3.68434 -3.0144,-6.69886 -6.6988,-6.69886 -3.6844,0 -6.699,3.01452 -6.699,6.69886 0,3.68446 3.0146,6.69896 6.699,6.69896 3.6844,0 6.6988,-3.0145 6.6988,-6.69896 z m 93.7852,0 c 0,-3.68434 -3.0146,-6.69886 -6.699,-6.69886 -3.6844,0 -6.699,3.01452 -6.699,6.69886 0,3.68446 3.0146,6.69896 6.699,6.69896 3.6844,0 6.699,-3.0145 6.699,-6.69896 z m 93.785,0 c 0,-3.68434 -3.0146,-6.69886 -6.699,-6.69886 -3.6844,0 -6.699,3.01452 -6.699,6.69886 0,3.68446 3.0146,6.69896 6.699,6.69896 3.6844,0 6.699,-3.0145 6.699,-6.69896 z m 204.5722,-2.08916 c -9.0708,-3.66996 -27.1578,-3.89344 -40.1936,-0.49638 -13.0356,3.39696 -5.614,6.39972 16.4924,6.67274 22.1064,0.2733 32.772,-2.50628 23.7012,-6.17626 z m 158.3142,-10.60144 c 6.7394,4.16526 12.2536,1.18822 12.2536,-6.61546 0,-9.2787 -49.8396,-13.22632 -144.027,-11.40792 -144.027,2.78062 -144.027,2.78062 -20.0968,7.2017 84.9676,3.03112 124.2626,9.52824 124.9878,20.66558 0.7888,12.1064 2.7862,11.95708 7.8434,-0.58582 3.732,-9.25688 12.2994,-13.42284 19.039,-9.25768 z m -671.0372,-0.70742 c 0,-3.68444 -3.0146,-6.69896 -6.6988,-6.69896 -3.6847,0 -6.6991,3.01452 -6.6991,6.69896 0,3.68444 3.0144,6.69896 6.6991,6.69896 3.6842,0 6.6988,-3.01452 6.6988,-6.69896 z m 80.3872,0 c 0,-3.68444 -3.0146,-6.69896 -6.699,-6.69896 -3.6844,0 -6.699,3.01452 -6.699,6.69896 0,3.68444 3.0146,6.69896 6.699,6.69896 3.6844,0 6.699,-3.01452 6.699,-6.69896 z m 66.9892,0 c 0,-3.68444 -3.0144,-6.69896 -6.699,-6.69896 -3.6842,0 -6.6988,3.01452 -6.6988,6.69896 0,3.68444 3.0146,6.69896 6.6988,6.69896 3.6846,0 6.699,-3.01452 6.699,-6.69896 z m 93.785,0 c 0,-3.68444 -3.0146,-6.69896 -6.6988,-6.69896 -3.6846,0 -6.699,3.01452 -6.699,6.69896 0,3.68444 3.0144,6.69896 6.699,6.69896 3.6842,0 6.6988,-3.01452 6.6988,-6.69896 z m 107.1828,0 c 0,-3.68444 -3.0144,-6.69896 -6.6988,-6.69896 -3.6844,0 -6.699,3.01452 -6.699,6.69896 0,3.68444 3.0146,6.69896 6.699,6.69896 3.6844,0 6.6988,-3.01452 6.6988,-6.69896 z m -227.7636,-13.39786 c 0,-3.6844 -3.0144,-6.69892 -6.6988,-6.69892 -3.6844,0 -6.699,3.01452 -6.699,6.69892 0,3.68442 3.0146,6.6989 6.699,6.6989 3.6844,0 6.6988,-3.01448 6.6988,-6.6989 z m 53.5916,0 c 0,-3.6844 -3.0146,-6.69892 -6.699,-6.69892 -3.6844,0 -6.699,3.01452 -6.699,6.69892 0,3.68442 3.0146,6.6989 6.699,6.6989 3.6844,0 6.699,-3.01448 6.699,-6.6989 z m 102.7168,-2.23298 c -4.9126,-4.91254 -12.9512,-4.91254 -17.8638,0 -4.9126,4.91256 -0.8932,8.93188 8.932,8.93188 9.825,0 13.8444,-4.01932 8.9318,-8.93188 z m -129.5126,-11.16488 c 0,-3.6844 -3.0144,-6.69892 -6.699,-6.69892 -3.6842,0 -6.6988,3.01452 -6.6988,6.69892 0,3.68442 3.0146,6.69894 6.6988,6.69894 3.6846,0 6.699,-3.01452 6.699,-6.69894 z m 53.5914,0 c 0,-3.6844 -3.0144,-6.69892 -6.6988,-6.69892 -3.6844,0 -6.699,3.01452 -6.699,6.69892 0,3.68442 3.0146,6.69894 6.699,6.69894 3.6844,0 6.6988,-3.01452 6.6988,-6.69894 z m 116.1148,-2.23296 c -4.9126,-4.91256 -12.9512,-4.91256 -17.8638,0 -4.9126,4.91254 -0.8934,8.9319 8.932,8.9319 9.825,0 13.8444,-4.01936 8.9318,-8.9319 z m -223.2976,-11.16468 c 0,-3.68442 -3.0144,-6.69894 -6.699,-6.69894 -3.6844,0 -6.6988,3.01452 -6.6988,6.69894 0,3.6844 3.0144,6.69892 6.6988,6.69892 3.6846,0 6.699,-3.01452 6.699,-6.69892 z m 80.3872,0 c 0,-3.68442 -3.0146,-6.69894 -6.699,-6.69894 -3.6844,0 -6.699,3.01452 -6.699,6.69894 0,3.6844 3.0146,6.69892 6.699,6.69892 3.6844,0 6.699,-3.01452 6.699,-6.69892 z m 53.5914,0 c 0,-3.68442 -3.0146,-6.69894 -6.699,-6.69894 -3.6844,0 -6.6988,3.01452 -6.6988,6.69894 0,3.6844 3.0144,6.69892 6.6988,6.69892 3.6844,0 6.699,-3.01452 6.699,-6.69892 z m 164.3788,-2.08922 c -9.0708,-3.66998 -27.158,-3.89338 -40.1936,-0.4964 -13.0358,3.39694 -5.6142,6.39966 16.4922,6.6727 22.1066,0.27302 32.772,-2.50628 23.7014,-6.17626 z m 234.2074,-0.8081 c -20.2642,-3.06978 -53.424,-3.06978 -73.6882,0 -20.2642,3.06978 -3.6844,5.58142 36.844,5.58142 40.5286,0 57.1086,-2.51164 36.8442,-5.58142 z M 1303.3846,775.93723 c 0,-3.68442 -3.0145,-6.69894 -6.699,-6.69894 -3.6843,0 -6.6988,3.01452 -6.6988,6.69894 0,3.6844 3.0145,6.69892 6.6988,6.69892 3.6845,0 6.699,-3.01452 6.699,-6.69892 z m 884.2585,0 c 0,-3.68442 -3.0144,-6.69894 -6.6988,-6.69894 -3.6844,0 -6.699,3.01452 -6.699,6.69894 0,3.6844 3.0146,6.69892 6.699,6.69892 3.6844,0 6.6988,-3.01452 6.6988,-6.69892 z m 80.3872,0 c 0,-3.68442 -3.0144,-6.69894 -6.6988,-6.69894 -3.6844,0 -6.699,3.01452 -6.699,6.69894 0,3.6844 3.0146,6.69892 6.699,6.69892 3.6844,0 6.6988,-3.01452 6.6988,-6.69892 z m -937.85,-13.39786 c 0,-3.68442 -3.0145,-6.69894 -6.6989,-6.69894 -3.6845,0 -6.699,3.01452 -6.699,6.69894 0,3.6844 3.0145,6.69892 6.699,6.69892 3.6844,0 6.6989,-3.01452 6.6989,-6.69892 z m 884.2586,0 c 0,-3.68442 -3.0144,-6.69894 -6.699,-6.69894 -3.6842,0 -6.6988,3.01452 -6.6988,6.69894 0,3.6844 3.0146,6.69892 6.6988,6.69892 3.6846,0 6.699,-3.01452 6.699,-6.69892 z m 80.3872,0 c 0,-3.68442 -3.0146,-6.69894 -6.699,-6.69894 -3.6844,0 -6.6988,3.01452 -6.6988,6.69894 0,3.6844 3.0144,6.69892 6.6988,6.69892 3.6844,0 6.699,-3.01452 6.699,-6.69892 z m 66.9892,0 c 0,-3.68442 -3.0144,-6.69894 -6.6988,-6.69894 -3.6846,0 -6.699,3.01452 -6.699,6.69894 0,3.6844 3.0144,6.69892 6.699,6.69892 3.6844,0 6.6988,-3.01452 6.6988,-6.69892 z m -120.5806,-13.39786 c 0,-3.6844 -3.0146,-6.69892 -6.699,-6.69892 -3.6844,0 -6.699,3.01452 -6.699,6.69892 0,3.68442 3.0146,6.69892 6.699,6.69892 3.6844,0 6.699,-3.0145 6.699,-6.69892 z m 80.3872,0 c 0,-3.6844 -3.0146,-6.69892 -6.699,-6.69892 -3.6844,0 -6.699,3.01452 -6.699,6.69892 0,3.68442 3.0146,6.69892 6.699,6.69892 3.6844,0 6.699,-3.0145 6.699,-6.69892 z m 93.7848,0 c 0,-3.6844 -3.0144,-6.69892 -6.6988,-6.69892 -3.6844,0 -6.699,3.01452 -6.699,6.69892 0,3.68442 3.0146,6.69892 6.699,6.69892 3.6844,0 6.6988,-3.0145 6.6988,-6.69892 z m 197.3394,-1.3956 c -4.452,-4.452 -16.0078,-4.92798 -25.6794,-1.05774 -10.6878,4.27696 -7.5132,7.45166 8.0946,8.09454 14.1236,0.5818 22.0368,-2.58482 17.5848,-7.0368 z m 173.3348,-0.83734 c -4.9126,-4.91254 -12.9514,-4.91254 -17.864,0 -4.9124,4.91256 -0.8932,8.9319 8.932,8.9319 9.8252,0 13.8444,-4.01934 8.932,-8.9319 z m -415.3336,-13.39788 c -4.9126,-4.91256 -12.9512,-4.91256 -17.8638,0 -4.9126,4.91254 -0.8934,8.9319 8.9318,8.9319 9.8252,0 13.8446,-4.01936 8.932,-8.9319 z m 322.3858,0.83732 c -4.4518,-4.45198 -16.0076,-4.92796 -25.679,-1.05772 -10.688,4.27694 -7.5134,7.45166 8.0944,8.09454 14.1236,0.5817 22.0368,-2.58482 17.5846,-7.03682 z m -384.9092,-12.00224 c 0,-3.68442 -3.0146,-6.69892 -6.6988,-6.69892 -3.6846,0 -6.699,3.0145 -6.699,6.69892 0,3.6844 3.0144,6.69892 6.699,6.69892 3.6842,0 6.6988,-3.01452 6.6988,-6.69892 z m 237.812,-3.06098 c -27.6332,-2.89052 -72.8508,-2.89052 -100.484,0 -27.633,2.8905 -5.0242,5.25546 50.242,5.25546 55.2662,0 77.875,-2.36496 50.242,-5.25546 z m 240.8822,1.66538 c -4.4518,-4.452 -16.0076,-4.92798 -25.6792,-1.05774 -10.6878,4.27696 -7.5132,7.45166 8.0946,8.09454 14.1236,0.5817 22.0366,-2.58482 17.5846,-7.0368 z m -438.5006,-12.00226 c 0,-3.6844 -3.0146,-6.69892 -6.6988,-6.69892 -3.6846,0 -6.699,3.01452 -6.699,6.69892 0,3.68442 3.0144,6.69894 6.699,6.69894 3.6842,0 6.6988,-3.01452 6.6988,-6.69894 z m 357.2762,-2.23298 c -4.9126,-4.91254 -12.9512,-4.91254 -17.8638,0 -4.9126,4.91256 -0.8934,8.93192 8.9318,8.93192 9.8252,0 13.8446,-4.01936 8.932,-8.93192 z m -308.1508,-13.39784 c -4.9126,-4.91256 -12.9512,-4.91256 -17.8636,0 -4.9126,4.91254 -0.8934,8.9319 8.9318,8.9319 9.825,0 13.8444,-4.01936 8.9318,-8.9319 z m 228.601,0.83732 c -4.452,-4.452 -16.0076,-4.92796 -25.6792,-1.05772 -10.688,4.27694 -7.5132,7.45166 8.0944,8.09454 14.1238,0.5818 22.0368,-2.58482 17.5848,-7.03682 z m 137.6072,-38.79796 c 0,-3.6844 -3.0146,-6.69892 -6.699,-6.69892 -3.6844,0 -6.6988,3.01452 -6.6988,6.69892 0,3.68442 3.0144,6.69894 6.6988,6.69894 3.6844,0 6.699,-3.01452 6.699,-6.69894 z m -1192.4094,-13.3978 c 0,-3.6844 -3.0145,-6.69893 -6.6989,-6.69893 -3.6844,0 -6.6989,3.01453 -6.6989,6.69893 0,3.68442 3.0145,6.69894 6.6989,6.69894 3.6844,0 6.6989,-3.01452 6.6989,-6.69894 z m 75.9212,-29.02869 c -4.9125,-4.91254 -12.9512,-4.91254 -17.8638,0 -4.9125,4.91254 -0.8933,8.9319 8.9319,8.9319 9.8251,0 13.8444,-4.01936 8.9319,-8.9319 z m 1036.101,2.23298 c 0,-3.68442 -3.0144,-6.69894 -6.699,-6.69894 -3.6842,0 -6.6988,3.01452 -6.6988,6.69894 0,3.6844 3.0146,6.69892 6.6988,6.69892 3.6846,0 6.699,-3.01452 6.699,-6.69892 z M 1678.5246,601.76508 c 0,-3.6844 -3.0145,-6.69892 -6.6989,-6.69892 -3.6845,0 -6.699,3.01452 -6.699,6.69892 0,3.6844 3.0145,6.69892 6.699,6.69892 3.6844,0 6.6989,-3.01452 6.6989,-6.69892 z m 973.5777,-2.23298 c -4.9126,-4.91254 -12.9512,-4.91254 -17.8638,0 -4.9126,4.91254 -0.8934,8.9319 8.9318,8.9319 9.8252,0 13.8446,-4.01936 8.932,-8.9319 z m -933.3841,-11.16488 c 0,-3.68442 -3.0145,-6.69892 -6.699,-6.69892 -3.6844,0 -6.6989,3.0145 -6.6989,6.69892 0,3.68442 3.0145,6.69894 6.6989,6.69894 3.6845,0 6.699,-3.01452 6.699,-6.69894 z m 897.6565,0 c 0,-3.68442 -3.0146,-6.69892 -6.699,-6.69892 -3.6844,0 -6.6988,3.0145 -6.6988,6.69892 0,3.68442 3.0144,6.69894 6.6988,6.69894 3.6844,0 6.699,-3.01452 6.699,-6.69894 z m -857.4629,-13.39786 c 0,-3.6844 -3.0146,-6.69892 -6.699,-6.69892 -3.6844,0 -6.699,3.01452 -6.699,6.69892 0,3.68442 3.0146,6.69894 6.699,6.69894 3.6844,0 6.699,-3.01452 6.699,-6.69894 z m 817.2693,0 c 0,-3.6844 -3.0146,-6.69892 -6.699,-6.69892 -3.6844,0 -6.6988,3.01452 -6.6988,6.69892 0,3.68442 3.0144,6.69894 6.6988,6.69894 3.6844,0 6.699,-3.01452 6.699,-6.69894 z M 1799.1053,561.5715 c 0,-3.68439 -3.0145,-6.69891 -6.6989,-6.69891 -3.6845,0 -6.699,3.01452 -6.699,6.69891 0,3.68442 3.0145,6.69894 6.699,6.69894 3.6844,0 6.6989,-3.01452 6.6989,-6.69894 z m 732.4162,-2.23296 c -4.9124,-4.91255 -12.9512,-4.91255 -17.8638,0 -4.9126,4.91254 -0.8932,8.9319 8.932,8.9319 9.825,0 13.8444,-4.01936 8.9318,-8.9319 z m -678.8248,-11.16487 c 0,-3.68442 -3.0145,-6.69894 -6.6989,-6.69894 -3.6844,0 -6.6989,3.01452 -6.6989,6.69894 0,3.6844 3.0145,6.69892 6.6989,6.69892 3.6844,0 6.6989,-3.01452 6.6989,-6.69892 z m 625.2334,-2.23298 c -4.9126,-4.91255 -12.9512,-4.91255 -17.8638,0 -4.9126,4.91254 -0.8932,8.9319 8.9318,8.9319 9.8252,0 13.8446,-4.01936 8.932,-8.9319 z m -549.3122,-13.39787 c -4.9125,-4.91255 -12.9512,-4.91255 -17.8638,0 -4.9125,4.91255 -0.8933,8.93191 8.9319,8.93191 9.825,0 13.8444,-4.01936 8.9319,-8.93191 z m 459.9932,2.23298 c 0,-3.68441 -3.0146,-6.69892 -6.699,-6.69892 -3.6844,0 -6.6988,3.01451 -6.6988,6.69892 0,3.68441 3.0144,6.69893 6.6988,6.69893 3.6844,0 6.699,-3.01452 6.699,-6.69893 z m -298.1024,-15.93441 c -12.8954,-3.36993 -33.9971,-3.36993 -46.8925,0 -12.8954,3.36993 -2.3446,6.12715 23.4463,6.12715 25.7908,0 36.3418,-2.75722 23.4462,-6.12715 z m 140.9326,0.44735 c -9.0708,-3.66997 -27.158,-3.89338 -40.1936,-0.49639 -13.0358,3.39694 -5.6142,6.39965 16.4922,6.6727 22.1066,0.27301 32.7722,-2.50627 23.7014,-6.17626 z"
       id="path1" />
  </g>
</svg>
